<svg xmlns="http://www.w3.org/2000/svg" xmlns:xlink="http://www.w3.org/1999/xlink" width="500" zoomAndPan="magnify" viewBox="0 0 375 374.999991" height="500" preserveAspectRatio="xMidYMid meet" version="1.0"><defs><g/></defs><g fill="#9d0021" fill-opacity="1"><g transform="translate(4.230473, 211.572658)"><g><path d="M 38.296875 -32.53125 C 41.285156 -31.488281 43.867188 -29.84375 46.046875 -27.59375 C 48.234375 -25.34375 49.328125 -22.492188 49.328125 -19.046875 C 49.328125 -15.984375 48.347656 -13.34375 46.390625 -11.125 C 44.441406 -8.914062 42.035156 -7.222656 39.171875 -6.046875 C 36.304688 -4.878906 33.472656 -4.296875 30.671875 -4.296875 L 11.421875 -4.296875 C 9.472656 -4.296875 7.617188 -4.410156 5.859375 -4.640625 C 4.097656 -4.867188 2.679688 -5.304688 1.609375 -5.953125 C 0.535156 -6.609375 0 -7.554688 0 -8.796875 C 0 -9.703125 0.257812 -10.644531 0.78125 -11.625 C 1.300781 -12.601562 1.820312 -13.414062 2.34375 -14.0625 C 3.0625 -14.914062 3.582031 -16.347656 3.90625 -18.359375 C 4.226562 -20.378906 4.421875 -22.691406 4.484375 -25.296875 C 4.554688 -27.898438 4.492188 -30.488281 4.296875 -33.0625 C 4.097656 -35.632812 3.785156 -37.914062 3.359375 -39.90625 C 2.941406 -41.894531 2.472656 -43.28125 1.953125 -44.0625 C 1.492188 -44.644531 1.050781 -45.390625 0.625 -46.296875 C 0.207031 -47.210938 0 -48.0625 0 -48.84375 C 0 -50.082031 0.535156 -51.023438 1.609375 -51.671875 C 2.679688 -52.328125 4.097656 -52.769531 5.859375 -53 C 7.617188 -53.226562 9.472656 -53.34375 11.421875 -53.34375 L 27.453125 -53.34375 C 30.117188 -53.34375 32.738281 -52.914062 35.3125 -52.0625 C 37.882812 -51.21875 40.015625 -49.929688 41.703125 -48.203125 C 43.398438 -46.484375 44.25 -44.285156 44.25 -41.609375 C 44.25 -39.398438 43.675781 -37.5625 42.53125 -36.09375 C 41.394531 -34.625 39.984375 -33.4375 38.296875 -32.53125 Z M 31.265625 -10.0625 C 32.234375 -10.90625 32.929688 -12.222656 33.359375 -14.015625 C 33.785156 -15.804688 33.847656 -17.742188 33.546875 -19.828125 C 33.253906 -21.910156 32.539062 -23.816406 31.40625 -25.546875 C 30.269531 -27.273438 28.65625 -28.492188 26.5625 -29.203125 C 24.476562 -29.921875 21.84375 -29.828125 18.65625 -28.921875 C 18.65625 -25.523438 18.960938 -22.265625 19.578125 -19.140625 C 20.203125 -16.015625 21.113281 -13.472656 22.3125 -11.515625 C 23.519531 -9.566406 25.003906 -8.59375 26.765625 -8.59375 C 27.679688 -8.59375 28.460938 -8.671875 29.109375 -8.828125 C 29.765625 -8.992188 30.484375 -9.40625 31.265625 -10.0625 Z M 26.765625 -49.53125 C 25.203125 -49.53125 23.863281 -48.796875 22.75 -47.328125 C 21.644531 -45.859375 20.765625 -43.921875 20.109375 -41.515625 C 19.460938 -39.109375 19.046875 -36.472656 18.859375 -33.609375 C 20.941406 -33.609375 22.84375 -34.222656 24.5625 -35.453125 C 26.289062 -36.691406 27.691406 -38.191406 28.765625 -39.953125 C 29.835938 -41.710938 30.421875 -43.421875 30.515625 -45.078125 C 30.617188 -46.742188 30.085938 -48 28.921875 -48.84375 C 28.398438 -49.300781 27.679688 -49.53125 26.765625 -49.53125 Z M 26.765625 -49.53125 "/></g></g></g><g fill="#9d0021" fill-opacity="1"><g transform="translate(54.441834, 211.572658)"><g><path d="M 23.734375 -48.84375 C 23.734375 -48.0625 23.519531 -47.210938 23.09375 -46.296875 C 22.675781 -45.390625 22.238281 -44.644531 21.78125 -44.0625 C 21.257812 -43.28125 20.785156 -41.894531 20.359375 -39.90625 C 19.941406 -37.914062 19.632812 -35.632812 19.4375 -33.0625 C 19.238281 -30.488281 19.15625 -27.898438 19.1875 -25.296875 C 19.226562 -22.691406 19.425781 -20.378906 19.78125 -18.359375 C 20.132812 -16.347656 20.640625 -14.914062 21.296875 -14.0625 C 21.878906 -13.414062 22.429688 -12.601562 22.953125 -11.625 C 23.472656 -10.644531 23.734375 -9.703125 23.734375 -8.796875 C 23.734375 -7.554688 23.195312 -6.609375 22.125 -5.953125 C 21.050781 -5.304688 19.648438 -4.867188 17.921875 -4.640625 C 16.203125 -4.410156 14.332031 -4.296875 12.3125 -4.296875 L 11.421875 -4.296875 C 9.472656 -4.296875 7.617188 -4.410156 5.859375 -4.640625 C 4.097656 -4.867188 2.679688 -5.304688 1.609375 -5.953125 C 0.535156 -6.609375 0 -7.554688 0 -8.796875 C 0 -9.703125 0.257812 -10.644531 0.78125 -11.625 C 1.300781 -12.601562 1.820312 -13.414062 2.34375 -14.0625 C 3.0625 -14.914062 3.582031 -16.347656 3.90625 -18.359375 C 4.226562 -20.378906 4.421875 -22.691406 4.484375 -25.296875 C 4.554688 -27.898438 4.492188 -30.488281 4.296875 -33.0625 C 4.097656 -35.632812 3.785156 -37.914062 3.359375 -39.90625 C 2.941406 -41.894531 2.472656 -43.28125 1.953125 -44.0625 C 1.492188 -44.644531 1.050781 -45.390625 0.625 -46.296875 C 0.207031 -47.210938 0 -48.0625 0 -48.84375 C 0 -50.082031 0.535156 -51.023438 1.609375 -51.671875 C 2.679688 -52.328125 4.097656 -52.769531 5.859375 -53 C 7.617188 -53.226562 9.472656 -53.34375 11.421875 -53.34375 L 12.3125 -53.34375 C 14.332031 -53.34375 16.203125 -53.226562 17.921875 -53 C 19.648438 -52.769531 21.050781 -52.328125 22.125 -51.671875 C 23.195312 -51.023438 23.734375 -50.082031 23.734375 -48.84375 Z M 23.734375 -48.84375 "/></g></g></g><g fill="#9d0021" fill-opacity="1"><g transform="translate(79.059081, 211.572658)"><g><path d="M 44.25 -53.234375 C 46.070312 -53.234375 47.78125 -53.117188 49.375 -52.890625 C 50.976562 -52.671875 52.21875 -52.332031 53.09375 -51.875 C 53.96875 -51.414062 54.210938 -50.765625 53.828125 -49.921875 C 53.429688 -49.140625 52.757812 -48.535156 51.8125 -48.109375 C 50.875 -47.679688 49.867188 -47.191406 48.796875 -46.640625 C 47.722656 -46.085938 46.757812 -45.128906 45.90625 -43.765625 C 45.90625 -43.765625 45.46875 -43.03125 44.59375 -41.5625 C 43.71875 -40.101562 42.59375 -38.25 41.21875 -36 C 39.851562 -33.75 38.390625 -31.351562 36.828125 -28.8125 C 35.265625 -26.28125 33.78125 -23.890625 32.375 -21.640625 C 30.976562 -19.390625 29.835938 -17.53125 28.953125 -16.0625 C 28.078125 -14.601562 27.640625 -13.875 27.640625 -13.875 C 27.191406 -13.09375 26.507812 -12.257812 25.59375 -11.375 C 24.675781 -10.5 23.664062 -9.671875 22.5625 -8.890625 L 32.625 -8.890625 C 34.320312 -8.890625 35.835938 -9.410156 37.171875 -10.453125 C 38.503906 -11.492188 39.660156 -13.1875 40.640625 -15.53125 C 41.160156 -16.894531 42.101562 -17.820312 43.46875 -18.3125 C 44.832031 -18.800781 46.265625 -18.929688 47.765625 -18.703125 C 49.265625 -18.472656 50.550781 -17.96875 51.625 -17.1875 C 52.695312 -16.40625 53.234375 -15.398438 53.234375 -14.171875 C 53.234375 -12.472656 52.535156 -10.875 51.140625 -9.375 C 49.742188 -7.875 47.773438 -6.648438 45.234375 -5.703125 C 42.691406 -4.765625 39.691406 -4.296875 36.234375 -4.296875 L 10.15625 -4.296875 C 8.726562 -4.296875 7.132812 -4.375 5.375 -4.53125 C 3.613281 -4.695312 2.195312 -5.023438 1.125 -5.515625 C 0.0507812 -6.003906 -0.253906 -6.738281 0.203125 -7.71875 C 0.585938 -8.5625 1.25 -9.160156 2.1875 -9.515625 C 3.132812 -9.878906 4.144531 -10.351562 5.21875 -10.9375 C 6.300781 -11.519531 7.234375 -12.5 8.015625 -13.875 C 8.015625 -13.875 8.453125 -14.585938 9.328125 -16.015625 C 10.203125 -17.453125 11.335938 -19.289062 12.734375 -21.53125 C 14.140625 -23.78125 15.609375 -26.175781 17.140625 -28.71875 C 18.671875 -31.257812 20.132812 -33.671875 21.53125 -35.953125 C 22.9375 -38.234375 24.078125 -40.101562 24.953125 -41.5625 C 25.835938 -43.03125 26.28125 -43.765625 26.28125 -43.765625 C 27.320312 -45.390625 28.851562 -47.015625 30.875 -48.640625 L 20.609375 -48.640625 C 18.921875 -48.640625 17.390625 -48.117188 16.015625 -47.078125 C 14.648438 -46.035156 13.515625 -44.34375 12.609375 -42 C 12.078125 -40.632812 11.128906 -39.722656 9.765625 -39.265625 C 8.398438 -38.816406 6.96875 -38.6875 5.46875 -38.875 C 3.96875 -39.070312 2.679688 -39.578125 1.609375 -40.390625 C 0.535156 -41.203125 0 -42.195312 0 -43.375 C 0 -45.0625 0.695312 -46.671875 2.09375 -48.203125 C 3.5 -49.734375 5.46875 -50.972656 8 -51.921875 C 10.539062 -52.867188 13.507812 -53.34375 16.90625 -53.34375 L 44.25 -53.34375 Z M 44.25 -53.234375 "/></g></g></g><g fill="#9d0021" fill-opacity="1"><g transform="translate(133.764068, 211.572658)"><g><path d="M 49.046875 -9.765625 C 49.429688 -9.378906 49.769531 -9.003906 50.0625 -8.640625 C 50.351562 -8.285156 50.535156 -7.910156 50.609375 -7.515625 C 50.734375 -6.609375 49.832031 -5.84375 47.90625 -5.21875 C 45.988281 -4.601562 43.566406 -4.296875 40.640625 -4.296875 C 36.535156 -4.296875 33.050781 -4.976562 30.1875 -6.34375 C 27.320312 -7.71875 24.941406 -9.539062 23.046875 -11.8125 C 21.160156 -14.09375 19.613281 -16.582031 18.40625 -19.28125 C 17.207031 -21.988281 16.203125 -24.691406 15.390625 -27.390625 C 14.578125 -30.097656 13.828125 -32.578125 13.140625 -34.828125 C 12.453125 -37.078125 11.6875 -38.851562 10.84375 -40.15625 C 10.382812 -37.613281 10.125 -34.78125 10.0625 -31.65625 C 10 -28.53125 10.097656 -25.46875 10.359375 -22.46875 C 10.617188 -19.46875 11.039062 -16.828125 11.625 -14.546875 C 12.207031 -12.273438 12.925781 -10.679688 13.78125 -9.765625 C 14.164062 -9.378906 14.488281 -9.003906 14.75 -8.640625 C 15.007812 -8.285156 15.171875 -7.910156 15.234375 -7.515625 C 15.367188 -6.929688 15.046875 -6.394531 14.265625 -5.90625 C 13.484375 -5.414062 12.488281 -5.023438 11.28125 -4.734375 C 10.070312 -4.441406 8.851562 -4.296875 7.625 -4.296875 C 6.445312 -4.296875 5.253906 -4.441406 4.046875 -4.734375 C 2.847656 -5.023438 1.859375 -5.414062 1.078125 -5.90625 C 0.296875 -6.394531 -0.0625 -6.929688 0 -7.515625 C 0.0625 -7.910156 0.238281 -8.285156 0.53125 -8.640625 C 0.832031 -9.003906 1.144531 -9.378906 1.46875 -9.765625 C 2.375 -10.742188 3.117188 -12.503906 3.703125 -15.046875 C 4.296875 -17.585938 4.722656 -20.484375 4.984375 -23.734375 C 5.242188 -26.992188 5.289062 -30.265625 5.125 -33.546875 C 4.96875 -36.835938 4.59375 -39.769531 4 -42.34375 C 3.414062 -44.914062 2.570312 -46.722656 1.46875 -47.765625 C 0.550781 -48.679688 0.0625 -49.460938 0 -50.109375 C -0.0625 -50.703125 0.296875 -51.238281 1.078125 -51.71875 C 1.859375 -52.207031 2.847656 -52.597656 4.046875 -52.890625 C 5.253906 -53.191406 6.445312 -53.34375 7.625 -53.34375 L 15.046875 -53.34375 C 18.234375 -53.34375 20.882812 -52.640625 23 -51.234375 C 25.125 -49.835938 26.851562 -48 28.1875 -45.71875 C 29.519531 -43.4375 30.625 -40.925781 31.5 -38.1875 C 32.382812 -35.457031 33.179688 -32.753906 33.890625 -30.078125 C 34.609375 -27.410156 35.390625 -24.984375 36.234375 -22.796875 C 37.085938 -20.617188 38.195312 -18.945312 39.5625 -17.78125 C 40.019531 -20.320312 40.3125 -23.101562 40.4375 -26.125 C 40.570312 -29.15625 40.539062 -32.148438 40.34375 -35.109375 C 40.144531 -38.078125 39.753906 -40.679688 39.171875 -42.921875 C 38.585938 -45.171875 37.804688 -46.785156 36.828125 -47.765625 C 35.984375 -48.617188 35.460938 -49.398438 35.265625 -50.109375 C 35.203125 -50.703125 35.5625 -51.238281 36.34375 -51.71875 C 37.125 -52.207031 38.128906 -52.597656 39.359375 -52.890625 C 40.597656 -53.191406 41.804688 -53.34375 42.984375 -53.34375 C 44.148438 -53.34375 45.335938 -53.191406 46.546875 -52.890625 C 47.753906 -52.597656 48.75 -52.207031 49.53125 -51.71875 C 50.3125 -51.238281 50.671875 -50.703125 50.609375 -50.109375 C 50.535156 -49.398438 50.015625 -48.617188 49.046875 -47.765625 C 47.992188 -46.722656 47.160156 -44.914062 46.546875 -42.34375 C 45.929688 -39.769531 45.554688 -36.835938 45.421875 -33.546875 C 45.296875 -30.265625 45.34375 -26.992188 45.5625 -23.734375 C 45.789062 -20.484375 46.195312 -17.585938 46.78125 -15.046875 C 47.375 -12.503906 48.128906 -10.742188 49.046875 -9.765625 Z M 49.046875 -9.765625 "/></g></g></g><g fill="#9d0021" fill-opacity="1"><g transform="translate(184.854622, 211.572658)"><g><path d="M 27.0625 -48.640625 C 25.5 -48.640625 24.175781 -47.921875 23.09375 -46.484375 C 22.019531 -45.054688 21.140625 -43.1875 20.453125 -40.875 C 19.773438 -38.570312 19.304688 -36.050781 19.046875 -33.3125 L 21.78125 -33.3125 C 23.476562 -33.3125 24.78125 -33.570312 25.6875 -34.09375 C 26.601562 -34.613281 27.335938 -35.210938 27.890625 -35.890625 C 28.441406 -36.578125 28.910156 -37.195312 29.296875 -37.75 C 29.691406 -38.3125 30.179688 -38.625 30.765625 -38.6875 C 31.421875 -38.75 31.972656 -38.390625 32.421875 -37.609375 C 32.878906 -36.828125 33.253906 -35.832031 33.546875 -34.625 C 33.847656 -33.425781 34 -32.238281 34 -31.0625 C 34 -29.894531 33.847656 -28.691406 33.546875 -27.453125 C 33.253906 -26.210938 32.878906 -25.21875 32.421875 -24.46875 C 31.972656 -23.71875 31.421875 -23.375 30.765625 -23.4375 C 30.179688 -23.507812 29.691406 -23.820312 29.296875 -24.375 C 28.910156 -24.925781 28.441406 -25.523438 27.890625 -26.171875 C 27.335938 -26.828125 26.601562 -27.414062 25.6875 -27.9375 C 24.78125 -28.457031 23.476562 -28.71875 21.78125 -28.71875 L 18.859375 -28.71875 C 18.859375 -25.394531 19.164062 -22.21875 19.78125 -19.1875 C 20.394531 -16.164062 21.304688 -13.691406 22.515625 -11.765625 C 23.722656 -9.847656 25.238281 -8.890625 27.0625 -8.890625 C 28.75 -8.890625 30.390625 -9.410156 31.984375 -10.453125 C 33.585938 -11.492188 34.875 -13.1875 35.84375 -15.53125 C 36.363281 -16.894531 37.304688 -17.820312 38.671875 -18.3125 C 40.046875 -18.800781 41.484375 -18.929688 42.984375 -18.703125 C 44.484375 -18.472656 45.769531 -17.96875 46.84375 -17.1875 C 47.914062 -16.40625 48.453125 -15.398438 48.453125 -14.171875 C 48.453125 -12.472656 47.832031 -10.875 46.59375 -9.375 C 45.351562 -7.875 43.804688 -6.648438 41.953125 -5.703125 C 40.097656 -4.765625 38.226562 -4.296875 36.34375 -4.296875 L 11.421875 -4.296875 C 9.472656 -4.296875 7.617188 -4.410156 5.859375 -4.640625 C 4.097656 -4.867188 2.679688 -5.304688 1.609375 -5.953125 C 0.535156 -6.609375 0 -7.554688 0 -8.796875 C 0 -9.703125 0.257812 -10.644531 0.78125 -11.625 C 1.300781 -12.601562 1.820312 -13.414062 2.34375 -14.0625 C 3.0625 -14.914062 3.582031 -16.347656 3.90625 -18.359375 C 4.226562 -20.378906 4.421875 -22.691406 4.484375 -25.296875 C 4.554688 -27.898438 4.492188 -30.488281 4.296875 -33.0625 C 4.097656 -35.632812 3.785156 -37.914062 3.359375 -39.90625 C 2.941406 -41.894531 2.472656 -43.28125 1.953125 -44.0625 C 1.492188 -44.644531 1.050781 -45.390625 0.625 -46.296875 C 0.207031 -47.210938 0 -48.0625 0 -48.84375 C 0 -50.082031 0.535156 -51.023438 1.609375 -51.671875 C 2.679688 -52.328125 4.097656 -52.769531 5.859375 -53 C 7.617188 -53.226562 9.472656 -53.34375 11.421875 -53.34375 L 36.34375 -53.34375 C 38.226562 -53.34375 40.097656 -52.867188 41.953125 -51.921875 C 43.804688 -50.972656 45.351562 -49.75 46.59375 -48.25 C 47.832031 -46.757812 48.453125 -45.132812 48.453125 -43.375 C 48.453125 -42.195312 47.914062 -41.203125 46.84375 -40.390625 C 45.769531 -39.578125 44.484375 -39.070312 42.984375 -38.875 C 41.484375 -38.6875 40.046875 -38.816406 38.671875 -39.265625 C 37.304688 -39.722656 36.363281 -40.632812 35.84375 -42 C 34.875 -44.34375 33.585938 -46.035156 31.984375 -47.078125 C 30.390625 -48.117188 28.75 -48.640625 27.0625 -48.640625 Z M 27.0625 -48.640625 "/></g></g></g><g fill="#9d0021" fill-opacity="1"><g transform="translate(234.089115, 211.572658)"><g><path d="M 79.21875 -53.34375 C 81.894531 -53.34375 84.09375 -53.03125 85.8125 -52.40625 C 87.539062 -51.789062 88.144531 -51.023438 87.625 -50.109375 C 87.101562 -49.265625 86.289062 -48.484375 85.1875 -47.765625 C 83.289062 -46.597656 81.1875 -44.660156 78.875 -41.953125 C 76.570312 -39.253906 74.503906 -35.96875 72.671875 -32.09375 C 70.847656 -28.21875 69.644531 -23.9375 69.0625 -19.25 C 68.738281 -16.570312 68.203125 -14.09375 67.453125 -11.8125 C 66.703125 -9.539062 65.609375 -7.71875 64.171875 -6.34375 C 62.742188 -4.976562 60.859375 -4.296875 58.515625 -4.296875 C 54.210938 -4.296875 50.742188 -5.566406 48.109375 -8.109375 C 45.472656 -10.648438 43.304688 -13.710938 41.609375 -17.296875 C 41.285156 -14.878906 40.75 -12.691406 40 -10.734375 C 39.25 -8.785156 38.109375 -7.222656 36.578125 -6.046875 C 35.046875 -4.878906 32.914062 -4.296875 30.1875 -4.296875 C 26.664062 -4.296875 23.703125 -5.125 21.296875 -6.78125 C 18.890625 -8.445312 16.882812 -10.644531 15.28125 -13.375 C 13.6875 -16.113281 12.367188 -19.046875 11.328125 -22.171875 C 10.285156 -25.296875 9.390625 -28.351562 8.640625 -31.34375 C 7.890625 -34.34375 7.171875 -36.984375 6.484375 -39.265625 C 5.804688 -41.546875 4.976562 -43.144531 4 -44.0625 C 3.351562 -44.707031 2.640625 -45.46875 1.859375 -46.34375 C 1.078125 -47.226562 0.523438 -48.0625 0.203125 -48.84375 C -0.253906 -50.082031 -0.015625 -51.023438 0.921875 -51.671875 C 1.867188 -52.328125 3.238281 -52.769531 5.03125 -53 C 6.820312 -53.226562 8.691406 -53.34375 10.640625 -53.34375 L 11.421875 -53.34375 C 14.484375 -53.34375 17.285156 -53.0625 19.828125 -52.5 C 22.367188 -51.945312 24 -50.726562 24.71875 -48.84375 C 25.039062 -48.0625 25.148438 -47.210938 25.046875 -46.296875 C 24.953125 -45.390625 24.84375 -44.644531 24.71875 -44.0625 C 24.457031 -43.207031 24.441406 -41.65625 24.671875 -39.40625 C 24.898438 -37.164062 25.382812 -34.628906 26.125 -31.796875 C 26.875 -28.960938 27.898438 -26.191406 29.203125 -23.484375 C 30.503906 -20.785156 32.066406 -18.554688 33.890625 -16.796875 C 34.148438 -18.296875 34.441406 -19.679688 34.765625 -20.953125 C 35.097656 -22.222656 35.394531 -23.445312 35.65625 -24.625 C 36.375 -27.8125 36.632812 -30.316406 36.4375 -32.140625 C 36.238281 -33.960938 36.007812 -35.363281 35.75 -36.34375 C 35.226562 -38.164062 34.707031 -39.742188 34.1875 -41.078125 C 33.664062 -42.410156 33.082031 -43.40625 32.4375 -44.0625 C 31.78125 -44.707031 31.0625 -45.46875 30.28125 -46.34375 C 29.5 -47.226562 28.945312 -48.0625 28.625 -48.84375 C 28.164062 -50.082031 28.390625 -51.023438 29.296875 -51.671875 C 30.210938 -52.328125 31.566406 -52.769531 33.359375 -53 C 35.148438 -53.226562 37.054688 -53.34375 39.078125 -53.34375 L 39.859375 -53.34375 C 41.222656 -53.34375 42.570312 -53.289062 43.90625 -53.1875 C 45.238281 -53.09375 46.492188 -52.882812 47.671875 -52.5625 C 48.972656 -52.300781 50.09375 -51.859375 51.03125 -51.234375 C 51.976562 -50.617188 52.648438 -49.820312 53.046875 -48.84375 C 53.304688 -48.1875 53.4375 -47.515625 53.4375 -46.828125 C 53.4375 -46.148438 53.367188 -45.519531 53.234375 -44.9375 C 53.234375 -44.613281 53.171875 -44.320312 53.046875 -44.0625 C 52.785156 -43.207031 52.785156 -41.65625 53.046875 -39.40625 C 53.304688 -37.164062 53.8125 -34.628906 54.5625 -31.796875 C 55.3125 -28.960938 56.316406 -26.191406 57.578125 -23.484375 C 58.847656 -20.785156 60.398438 -18.554688 62.234375 -16.796875 C 62.554688 -20.898438 63.203125 -24.5625 64.171875 -27.78125 C 65.148438 -31.007812 66.175781 -33.878906 67.25 -36.390625 C 68.332031 -38.898438 69.132812 -41.097656 69.65625 -42.984375 C 70.175781 -44.867188 70.078125 -46.460938 69.359375 -47.765625 C 69.160156 -48.222656 68.992188 -48.628906 68.859375 -48.984375 C 68.734375 -49.347656 68.703125 -49.722656 68.765625 -50.109375 C 69.097656 -51.023438 70.320312 -51.789062 72.4375 -52.40625 C 74.550781 -53.03125 76.8125 -53.34375 79.21875 -53.34375 Z M 79.21875 -53.34375 "/></g></g></g><g fill="#9d0021" fill-opacity="1"><g transform="translate(322.593962, 211.572658)"><g><path d="M 19.640625 -43.46875 C 19.828125 -41.84375 20.601562 -40.410156 21.96875 -39.171875 C 23.34375 -37.929688 25.019531 -36.773438 27 -35.703125 C 28.988281 -34.628906 31.109375 -33.570312 33.359375 -32.53125 C 35.609375 -31.488281 37.757812 -30.394531 39.8125 -29.25 C 41.863281 -28.113281 43.585938 -26.8125 44.984375 -25.34375 C 46.378906 -23.882812 47.242188 -22.207031 47.578125 -20.3125 C 47.898438 -18.164062 47.472656 -16.128906 46.296875 -14.203125 C 45.128906 -12.285156 43.421875 -10.578125 41.171875 -9.078125 C 38.929688 -7.585938 36.34375 -6.414062 33.40625 -5.5625 C 30.476562 -4.71875 27.382812 -4.296875 24.125 -4.296875 L 23.828125 -4.296875 C 20.640625 -4.296875 17.429688 -4.617188 14.203125 -5.265625 C 10.984375 -5.921875 8.148438 -6.929688 5.703125 -8.296875 C 3.265625 -9.671875 1.5625 -11.429688 0.59375 -13.578125 C -0.195312 -15.335938 -0.25 -16.832031 0.4375 -18.0625 C 1.125 -19.300781 2.25 -20.28125 3.8125 -21 C 5.375 -21.71875 7.113281 -22.140625 9.03125 -22.265625 C 10.957031 -22.398438 12.765625 -22.207031 14.453125 -21.6875 C 16.148438 -21.164062 17.503906 -20.316406 18.515625 -19.140625 C 19.523438 -17.972656 19.863281 -16.410156 19.53125 -14.453125 C 19.269531 -12.628906 19.53125 -11.273438 20.3125 -10.390625 C 21.09375 -9.515625 22.085938 -9.03125 23.296875 -8.9375 C 24.503906 -8.84375 25.660156 -9.070312 26.765625 -9.625 C 27.867188 -10.175781 28.617188 -11.003906 29.015625 -12.109375 C 29.660156 -14.003906 29.460938 -15.617188 28.421875 -16.953125 C 27.378906 -18.285156 25.832031 -19.519531 23.78125 -20.65625 C 21.726562 -21.800781 19.460938 -22.894531 16.984375 -23.9375 C 14.515625 -24.976562 12.125 -26.113281 9.8125 -27.34375 C 7.5 -28.582031 5.5625 -30.015625 4 -31.640625 C 2.4375 -33.273438 1.59375 -35.203125 1.46875 -37.421875 C 1.269531 -40.734375 2.210938 -43.578125 4.296875 -45.953125 C 6.378906 -48.335938 9.242188 -50.164062 12.890625 -51.4375 C 16.535156 -52.707031 20.578125 -53.34375 25.015625 -53.34375 L 25.296875 -53.34375 C 27.898438 -53.34375 30.472656 -53 33.015625 -52.3125 C 35.554688 -51.625 37.835938 -50.597656 39.859375 -49.234375 C 41.878906 -47.867188 43.375 -46.109375 44.34375 -43.953125 C 45.195312 -42.066406 45.234375 -40.503906 44.453125 -39.265625 C 43.671875 -38.035156 42.429688 -37.175781 40.734375 -36.6875 C 39.046875 -36.195312 37.222656 -36.082031 35.265625 -36.34375 C 33.304688 -36.601562 31.5625 -37.285156 30.03125 -38.390625 C 28.507812 -39.492188 27.519531 -41.054688 27.0625 -43.078125 C 26.601562 -45.160156 25.929688 -46.640625 25.046875 -47.515625 C 24.171875 -48.398438 23.273438 -48.773438 22.359375 -48.640625 C 21.453125 -48.515625 20.722656 -47.992188 20.171875 -47.078125 C 19.617188 -46.171875 19.441406 -44.96875 19.640625 -43.46875 Z M 19.640625 -43.46875 "/></g></g></g></svg>