<svg xmlns="http://www.w3.org/2000/svg" xmlns:xlink="http://www.w3.org/1999/xlink" width="500" zoomAndPan="magnify" viewBox="0 0 375 374.999991" height="500" preserveAspectRatio="xMidYMid meet" version="1.0"><defs><g/><clipPath id="f45923b79b"><path d="M 24 108 L 353 108 L 353 300 L 24 300 Z M 24 108 " clip-rule="nonzero"/></clipPath><clipPath id="95c014c3bc"><path d="M 77.421875 21.992188 L 374.335938 136.519531 L 297.058594 336.863281 L 0.144531 222.335938 Z M 77.421875 21.992188 " clip-rule="nonzero"/></clipPath><clipPath id="a8afee7933"><path d="M 77.421875 21.992188 L 374.335938 136.519531 L 297.058594 336.863281 L 0.144531 222.335938 Z M 77.421875 21.992188 " clip-rule="nonzero"/></clipPath><clipPath id="87391a8947"><path d="M 350.203125 182.550781 C 357.605469 157.398438 344.960938 130.195312 321.078125 119.492188 C 302.640625 111.164062 282.234375 114.253906 267.367188 125.433594 C 259.957031 130.964844 249.707031 130.527344 242.507812 124.636719 C 236.964844 120.066406 230.46875 116.207031 223.402344 113.480469 C 202.671875 105.484375 180.457031 108.011719 162.582031 118.570312 C 152.222656 124.722656 139.371094 124.367188 128.980469 118.328125 C 124.46875 115.640625 119.496094 113.453125 114.296875 111.851562 C 80.570312 101.414062 44.015625 118.300781 29.929688 150.617188 C 13.878906 187.320312 31.820312 229.558594 68.804688 243.824219 C 84.117188 249.730469 100.175781 249.835938 114.609375 245.390625 C 129.207031 240.871094 144.808594 247.429688 151.730469 261.058594 C 159.828125 276.902344 173.933594 289.785156 192.4375 295.839844 C 226.453125 306.929688 263.964844 290.007812 278.117188 257.175781 C 279.734375 253.335938 281.027344 249.636719 282.007812 245.6875 C 285.222656 232.449219 295.601562 222.378906 309.027344 219.84375 C 327.808594 216.402344 344.308594 202.738281 350.203125 182.550781 Z M 350.203125 182.550781 " clip-rule="nonzero"/></clipPath><clipPath id="b2064ac4ff"><path d="M 123 83 L 154 83 L 154 114 L 123 114 Z M 123 83 " clip-rule="nonzero"/></clipPath><clipPath id="05d5c60b53"><path d="M 77.421875 21.992188 L 374.335938 136.519531 L 297.058594 336.863281 L 0.144531 222.335938 Z M 77.421875 21.992188 " clip-rule="nonzero"/></clipPath><clipPath id="e1145a6be7"><path d="M 77.421875 21.992188 L 374.335938 136.519531 L 297.058594 336.863281 L 0.144531 222.335938 Z M 77.421875 21.992188 " clip-rule="nonzero"/></clipPath><clipPath id="46af923139"><path d="M 152.226562 104.023438 C 151.871094 104.941406 151.429688 105.820312 150.902344 106.652344 C 150.375 107.484375 149.769531 108.257812 149.089844 108.972656 C 148.410156 109.6875 147.664062 110.328125 146.859375 110.898438 C 146.054688 111.464844 145.199219 111.949219 144.296875 112.347656 C 143.394531 112.75 142.464844 113.058594 141.5 113.273438 C 140.539062 113.488281 139.5625 113.609375 138.578125 113.632812 C 137.589844 113.65625 136.613281 113.585938 135.640625 113.417969 C 134.667969 113.25 133.722656 112.988281 132.800781 112.632812 C 131.882812 112.277344 131.003906 111.835938 130.171875 111.308594 C 129.339844 110.78125 128.566406 110.175781 127.851562 109.496094 C 127.136719 108.816406 126.496094 108.074219 125.925781 107.265625 C 125.359375 106.460938 124.875 105.605469 124.476562 104.703125 C 124.074219 103.800781 123.765625 102.871094 123.550781 101.90625 C 123.335938 100.945312 123.214844 99.96875 123.191406 98.984375 C 123.167969 98 123.238281 97.019531 123.40625 96.046875 C 123.574219 95.074219 123.835938 94.128906 124.191406 93.207031 C 124.546875 92.289062 124.988281 91.410156 125.515625 90.578125 C 126.042969 89.746094 126.648438 88.972656 127.328125 88.257812 C 128.007812 87.542969 128.75 86.902344 129.558594 86.332031 C 130.363281 85.765625 131.21875 85.28125 132.121094 84.882812 C 133.023438 84.480469 133.953125 84.171875 134.917969 83.957031 C 135.878906 83.742188 136.855469 83.621094 137.839844 83.597656 C 138.824219 83.574219 139.804688 83.644531 140.777344 83.8125 C 141.75 83.980469 142.695312 84.242188 143.617188 84.597656 C 144.535156 84.953125 145.414062 85.394531 146.246094 85.921875 C 147.078125 86.449219 147.851562 87.054688 148.566406 87.734375 C 149.28125 88.414062 149.921875 89.160156 150.492188 89.964844 C 151.058594 90.769531 151.542969 91.625 151.941406 92.527344 C 152.34375 93.429688 152.652344 94.359375 152.867188 95.324219 C 153.082031 96.285156 153.203125 97.261719 153.226562 98.246094 C 153.25 99.234375 153.179688 100.210938 153.011719 101.183594 C 152.84375 102.15625 152.582031 103.101562 152.226562 104.023438 Z M 152.226562 104.023438 " clip-rule="nonzero"/></clipPath><clipPath id="c97afb05ff"><path d="M 220 81 L 239 81 L 239 100 L 220 100 Z M 220 81 " clip-rule="nonzero"/></clipPath><clipPath id="31185d28a0"><path d="M 77.421875 21.992188 L 374.335938 136.519531 L 297.058594 336.863281 L 0.144531 222.335938 Z M 77.421875 21.992188 " clip-rule="nonzero"/></clipPath><clipPath id="2773a47f65"><path d="M 77.421875 21.992188 L 374.335938 136.519531 L 297.058594 336.863281 L 0.144531 222.335938 Z M 77.421875 21.992188 " clip-rule="nonzero"/></clipPath><clipPath id="3a2f130a9e"><path d="M 237.644531 93.398438 C 237.433594 93.949219 237.167969 94.472656 236.855469 94.96875 C 236.539062 95.464844 236.179688 95.929688 235.773438 96.355469 C 235.367188 96.78125 234.921875 97.164062 234.441406 97.503906 C 233.960938 97.839844 233.453125 98.128906 232.914062 98.367188 C 232.375 98.605469 231.820312 98.789062 231.246094 98.917969 C 230.671875 99.046875 230.089844 99.121094 229.5 99.136719 C 228.914062 99.148438 228.328125 99.105469 227.75 99.003906 C 227.167969 98.90625 226.605469 98.75 226.054688 98.535156 C 225.507812 98.324219 224.984375 98.0625 224.484375 97.746094 C 223.988281 97.433594 223.527344 97.070312 223.101562 96.664062 C 222.675781 96.261719 222.292969 95.816406 221.953125 95.335938 C 221.613281 94.855469 221.324219 94.34375 221.085938 93.808594 C 220.847656 93.269531 220.664062 92.710938 220.535156 92.136719 C 220.40625 91.5625 220.335938 90.984375 220.320312 90.394531 C 220.304688 89.804688 220.347656 89.222656 220.449219 88.640625 C 220.550781 88.0625 220.707031 87.496094 220.917969 86.949219 C 221.128906 86.398438 221.394531 85.875 221.707031 85.378906 C 222.023438 84.882812 222.382812 84.421875 222.789062 83.992188 C 223.195312 83.566406 223.636719 83.183594 224.121094 82.847656 C 224.601562 82.507812 225.109375 82.21875 225.648438 81.980469 C 226.1875 81.742188 226.742188 81.558594 227.316406 81.429688 C 227.890625 81.300781 228.472656 81.226562 229.0625 81.214844 C 229.648438 81.199219 230.234375 81.242188 230.8125 81.34375 C 231.394531 81.445312 231.957031 81.601562 232.507812 81.8125 C 233.054688 82.023438 233.578125 82.285156 234.074219 82.601562 C 234.574219 82.917969 235.035156 83.277344 235.460938 83.683594 C 235.886719 84.089844 236.269531 84.53125 236.609375 85.011719 C 236.949219 85.492188 237.238281 86.003906 237.476562 86.542969 C 237.714844 87.078125 237.898438 87.636719 238.027344 88.210938 C 238.15625 88.785156 238.226562 89.367188 238.242188 89.953125 C 238.253906 90.542969 238.210938 91.125 238.113281 91.707031 C 238.011719 92.285156 237.855469 92.851562 237.644531 93.398438 Z M 237.644531 93.398438 " clip-rule="nonzero"/></clipPath><clipPath id="a512fa8023"><path d="M 300 239 L 329 239 L 329 268 L 300 268 Z M 300 239 " clip-rule="nonzero"/></clipPath><clipPath id="55619a5b75"><path d="M 77.421875 21.992188 L 374.335938 136.519531 L 297.058594 336.863281 L 0.144531 222.335938 Z M 77.421875 21.992188 " clip-rule="nonzero"/></clipPath><clipPath id="1cb3f5edba"><path d="M 77.421875 21.992188 L 374.335938 136.519531 L 297.058594 336.863281 L 0.144531 222.335938 Z M 77.421875 21.992188 " clip-rule="nonzero"/></clipPath><clipPath id="77822ba649"><path d="M 327.859375 258.367188 C 327.523438 259.230469 327.109375 260.058594 326.613281 260.84375 C 326.117188 261.625 325.546875 262.355469 324.90625 263.027344 C 324.269531 263.699219 323.566406 264.304688 322.808594 264.835938 C 322.050781 265.371094 321.246094 265.828125 320.398438 266.203125 C 319.546875 266.578125 318.671875 266.871094 317.765625 267.074219 C 316.859375 267.277344 315.941406 267.390625 315.015625 267.414062 C 314.085938 267.433594 313.164062 267.367188 312.25 267.207031 C 311.335938 267.050781 310.445312 266.804688 309.578125 266.46875 C 308.710938 266.136719 307.886719 265.71875 307.101562 265.222656 C 306.320312 264.726562 305.589844 264.15625 304.917969 263.519531 C 304.246094 262.878906 303.640625 262.179688 303.105469 261.417969 C 302.574219 260.660156 302.117188 259.855469 301.742188 259.007812 C 301.363281 258.160156 301.074219 257.28125 300.871094 256.375 C 300.667969 255.46875 300.554688 254.554688 300.53125 253.625 C 300.507812 252.695312 300.578125 251.773438 300.734375 250.859375 C 300.894531 249.945312 301.140625 249.054688 301.476562 248.1875 C 301.808594 247.324219 302.226562 246.496094 302.722656 245.714844 C 303.21875 244.929688 303.785156 244.199219 304.425781 243.527344 C 305.066406 242.855469 305.765625 242.253906 306.527344 241.71875 C 307.285156 241.183594 308.089844 240.726562 308.9375 240.351562 C 309.785156 239.976562 310.664062 239.683594 311.570312 239.480469 C 312.476562 239.277344 313.390625 239.164062 314.320312 239.140625 C 315.25 239.121094 316.167969 239.1875 317.085938 239.347656 C 318 239.503906 318.890625 239.75 319.753906 240.085938 C 320.621094 240.417969 321.445312 240.835938 322.230469 241.332031 C 323.015625 241.828125 323.746094 242.398438 324.417969 243.035156 C 325.089844 243.675781 325.691406 244.375 326.226562 245.136719 C 326.761719 245.894531 327.21875 246.699219 327.59375 247.546875 C 327.96875 248.394531 328.257812 249.273438 328.464844 250.179688 C 328.667969 251.085938 328.78125 252.003906 328.800781 252.929688 C 328.824219 253.859375 328.757812 254.78125 328.597656 255.695312 C 328.441406 256.609375 328.191406 257.5 327.859375 258.367188 Z M 327.859375 258.367188 " clip-rule="nonzero"/></clipPath></defs><g clip-path="url(#f45923b79b)"><g clip-path="url(#95c014c3bc)"><g clip-path="url(#a8afee7933)"><g clip-path="url(#87391a8947)"><path fill="#4b5ae4" d="M 58.394531 -13.996094 L -55.128906 280.316406 L 313.085938 422.34375 L 426.609375 128.03125 Z M 58.394531 -13.996094 " fill-opacity="1" fill-rule="nonzero"/></g></g></g></g><g clip-path="url(#b2064ac4ff)"><g clip-path="url(#05d5c60b53)"><g clip-path="url(#e1145a6be7)"><g clip-path="url(#46af923139)"><path fill="#4b5ae4" d="M 127.0625 73.472656 L 113.066406 109.761719 L 149.355469 123.757812 L 163.351562 87.46875 Z M 127.0625 73.472656 " fill-opacity="1" fill-rule="nonzero"/></g></g></g></g><g clip-path="url(#c97afb05ff)"><g clip-path="url(#31185d28a0)"><g clip-path="url(#2773a47f65)"><g clip-path="url(#3a2f130a9e)"><path fill="#4b5ae4" d="M 222.628906 75.171875 L 214.277344 96.824219 L 235.929688 105.175781 L 244.28125 83.523438 Z M 222.628906 75.171875 " fill-opacity="1" fill-rule="nonzero"/></g></g></g></g><g clip-path="url(#a512fa8023)"><g clip-path="url(#55619a5b75)"><g clip-path="url(#1cb3f5edba)"><g clip-path="url(#77822ba649)"><path fill="#4b5ae4" d="M 304.175781 229.613281 L 291.003906 263.769531 L 325.15625 276.941406 L 338.332031 242.785156 Z M 304.175781 229.613281 " fill-opacity="1" fill-rule="nonzero"/></g></g></g></g><g fill="#fcfdf2" fill-opacity="1"><g transform="translate(25.108548, 243.651742)"><g/></g></g><g fill="#fcfdf2" fill-opacity="1"><g transform="translate(76.748406, 225.254566)"><g><path d="M 13.390625 -0.5 C 9.546875 -0.351562 6.671875 -1.023438 4.765625 -2.515625 C 2.867188 -4.003906 1.664062 -6.007812 1.15625 -8.53125 C 0.65625 -11.050781 0.59375 -13.898438 0.96875 -17.078125 C 1.34375 -20.265625 1.898438 -23.507812 2.640625 -26.8125 C 3.378906 -30.125 4.0625 -33.222656 4.6875 -36.109375 C 5.320312 -39.003906 5.601562 -41.476562 5.53125 -43.53125 C 5.457031 -45.5 5.132812 -48.050781 4.5625 -51.1875 C 4 -54.320312 3.398438 -57.765625 2.765625 -61.515625 C 2.140625 -65.273438 1.59375 -69.007812 1.125 -72.71875 C 0.65625 -76.4375 0.460938 -79.835938 0.546875 -82.921875 C 0.640625 -86.003906 1.207031 -88.507812 2.25 -90.4375 C 3.289062 -92.363281 4.914062 -93.367188 7.125 -93.453125 C 9.082031 -93.523438 10.785156 -93.335938 12.234375 -92.890625 C 13.691406 -92.453125 14.5 -92.28125 14.65625 -92.375 C 17.582031 -93.382812 20.316406 -93.941406 22.859375 -94.046875 C 26.953125 -94.191406 30.789062 -93.445312 34.375 -91.8125 C 37.96875 -90.175781 40.945312 -87.90625 43.3125 -85 C 45.6875 -82.09375 47.164062 -78.804688 47.75 -75.140625 C 48.332031 -71.472656 47.710938 -67.632812 45.890625 -63.625 C 44.523438 -60.695312 43.128906 -58.507812 41.703125 -57.0625 C 40.273438 -55.625 39.179688 -54.625 38.421875 -54.0625 C 37.660156 -53.5 37.613281 -53.023438 38.28125 -52.640625 C 38.625 -52.484375 39.671875 -52.023438 41.421875 -51.265625 C 43.179688 -50.515625 45.21875 -49.421875 47.53125 -47.984375 C 49.84375 -46.554688 52.101562 -44.734375 54.3125 -42.515625 C 56.519531 -40.296875 58.335938 -37.613281 59.765625 -34.46875 C 61.203125 -31.332031 61.832031 -27.660156 61.65625 -23.453125 C 61.539062 -19.929688 60.640625 -16.519531 58.953125 -13.21875 C 57.265625 -9.914062 54.78125 -7.175781 51.5 -5 C 48.226562 -2.820312 44.09375 -1.640625 39.09375 -1.453125 C 37.363281 -1.390625 35.570312 -1.46875 33.71875 -1.6875 C 31.875 -1.90625 29.875 -2.257812 27.71875 -2.75 C 26.113281 -1.863281 24.101562 -1.296875 21.6875 -1.046875 C 19.269531 -0.796875 16.503906 -0.613281 13.390625 -0.5 Z M 26.125 -45.65625 C 24.675781 -45.03125 23.703125 -43.679688 23.203125 -41.609375 C 22.703125 -39.535156 22.617188 -37.273438 22.953125 -34.828125 C 23.296875 -32.378906 24.007812 -30.269531 25.09375 -28.5 C 26.1875 -26.738281 27.515625 -25.882812 29.078125 -25.9375 C 29.648438 -25.957031 30.175781 -26.101562 30.65625 -26.375 C 32.269531 -27.09375 33.289062 -28.21875 33.71875 -29.75 C 34.15625 -31.28125 34.21875 -32.960938 33.90625 -34.796875 C 33.59375 -36.640625 33.015625 -38.40625 32.171875 -40.09375 C 31.335938 -41.78125 30.425781 -43.160156 29.4375 -44.234375 C 28.457031 -45.304688 27.5625 -45.832031 26.75 -45.8125 C 26.414062 -45.789062 26.207031 -45.738281 26.125 -45.65625 Z M 21.078125 -82.140625 C 20.429688 -81.796875 20 -80.71875 19.78125 -78.90625 C 19.5625 -77.09375 19.613281 -75.0625 19.9375 -72.8125 C 20.269531 -70.570312 20.898438 -68.625 21.828125 -66.96875 C 22.753906 -65.320312 23.992188 -64.523438 25.546875 -64.578125 C 26.117188 -64.597656 26.648438 -64.660156 27.140625 -64.765625 C 27.628906 -64.867188 28.113281 -65.175781 28.59375 -65.6875 C 30.394531 -67.632812 31.300781 -69.59375 31.3125 -71.5625 C 31.320312 -73.539062 30.785156 -75.367188 29.703125 -77.046875 C 28.617188 -78.734375 27.359375 -80.0625 25.921875 -81.03125 C 24.484375 -82.007812 23.191406 -82.476562 22.046875 -82.4375 C 21.722656 -82.414062 21.398438 -82.316406 21.078125 -82.140625 Z M 21.078125 -82.140625 "/></g></g></g><g fill="#fcfdf2" fill-opacity="1"><g transform="translate(134.770524, 223.886539)"><g><path d="M 10.859375 2.15625 C 8.847656 1.757812 7.148438 0.816406 5.765625 -0.671875 C 4.390625 -2.160156 3.585938 -4.328125 3.359375 -7.171875 C 3.128906 -10.023438 3.695312 -13.632812 5.0625 -18 C 6.4375 -22.363281 8.898438 -27.625 12.453125 -33.78125 C 14.753906 -37.757812 16.640625 -42.085938 18.109375 -46.765625 C 19.578125 -51.441406 20.796875 -56.109375 21.765625 -60.765625 C 22.734375 -65.429688 23.585938 -69.753906 24.328125 -73.734375 C 25.078125 -77.722656 25.925781 -81.003906 26.875 -83.578125 C 27.269531 -84.835938 28.222656 -86.007812 29.734375 -87.09375 C 31.253906 -88.175781 33.421875 -88.4375 36.234375 -87.875 C 38.171875 -87.5 39.644531 -86.707031 40.65625 -85.5 C 41.664062 -84.300781 42.320312 -83 42.625 -81.59375 C 42.875 -80.625 42.816406 -78.921875 42.453125 -76.484375 C 42.085938 -74.054688 41.617188 -71.179688 41.046875 -67.859375 C 40.472656 -64.546875 39.914062 -61.019531 39.375 -57.28125 C 38.84375 -53.539062 38.476562 -49.804688 38.28125 -46.078125 C 38.09375 -42.347656 38.226562 -38.894531 38.6875 -35.71875 C 39.3125 -31.664062 39.769531 -27.5625 40.0625 -23.40625 C 40.363281 -19.25 40.398438 -15.3125 40.171875 -11.59375 C 39.941406 -7.875 39.300781 -4.65625 38.25 -1.9375 C 37.207031 0.769531 35.578125 2.757812 33.359375 4.03125 C 31.148438 5.3125 28.234375 5.59375 24.609375 4.875 Z M 10.859375 2.15625 "/></g></g></g><g fill="#fcfdf2" fill-opacity="1"><g transform="translate(170.223311, 231.503429)"><g><path d="M 24.59375 -0.28125 C 20.207031 -0.226562 16.097656 -1.007812 12.265625 -2.625 C 8.429688 -4.25 5.457031 -6.648438 3.34375 -9.828125 C 1.238281 -13.015625 0.523438 -16.96875 1.203125 -21.6875 C 1.816406 -25.507812 3.210938 -29.378906 5.390625 -33.296875 C 7.578125 -37.222656 10.171875 -41.023438 13.171875 -44.703125 C 16.179688 -48.390625 19.226562 -51.8125 22.3125 -54.96875 C 25.40625 -58.132812 28.15625 -60.945312 30.5625 -63.40625 C 32.96875 -65.875 34.609375 -67.804688 35.484375 -69.203125 C 36.835938 -71.316406 37.242188 -73 36.703125 -74.25 C 36.160156 -75.507812 35.078125 -76.128906 33.453125 -76.109375 C 32.640625 -76.097656 31.710938 -75.882812 30.671875 -75.46875 C 29.128906 -74.894531 27.207031 -74.101562 24.90625 -73.09375 C 22.601562 -72.09375 20.273438 -71.582031 17.921875 -71.5625 C 16.378906 -71.539062 14.914062 -71.925781 13.53125 -72.71875 C 12.144531 -73.507812 11.03125 -74.957031 10.1875 -77.0625 C 9.6875 -78.4375 9.628906 -80 10.015625 -81.75 C 10.398438 -83.5 11.429688 -85.171875 13.109375 -86.765625 C 14.796875 -88.367188 17.257812 -89.71875 20.5 -90.8125 C 23.738281 -91.914062 27.875 -92.492188 32.90625 -92.546875 C 34.601562 -92.566406 36.8125 -92.507812 39.53125 -92.375 C 42.25 -92.25 44.953125 -91.894531 47.640625 -91.3125 C 50.335938 -90.738281 52.625 -89.769531 54.5 -88.40625 C 56.382812 -87.050781 57.335938 -85.15625 57.359375 -82.71875 C 57.390625 -80.363281 56.789062 -77.695312 55.5625 -74.71875 C 54.34375 -71.738281 52.773438 -68.65625 50.859375 -65.46875 C 48.953125 -62.289062 46.957031 -59.144531 44.875 -56.03125 C 42.800781 -52.925781 40.945312 -50.023438 39.3125 -47.328125 C 37.6875 -44.628906 36.5 -42.28125 35.75 -40.28125 C 35.007812 -38.289062 35.050781 -36.851562 35.875 -35.96875 C 36.4375 -35.320312 37.082031 -35.003906 37.8125 -35.015625 C 38.625 -35.023438 39.695312 -35.21875 41.03125 -35.59375 C 42.375 -35.976562 44.425781 -36.1875 47.1875 -36.21875 C 47.757812 -36.226562 48.328125 -36.234375 48.890625 -36.234375 C 49.460938 -36.242188 50.070312 -36.210938 50.71875 -36.140625 C 54.613281 -35.941406 57.671875 -34.695312 59.890625 -32.40625 C 62.109375 -30.125 63.519531 -27.378906 64.125 -24.171875 C 64.726562 -20.972656 64.457031 -17.785156 63.3125 -14.609375 C 62.175781 -11.429688 60.203125 -8.8125 57.390625 -6.75 C 56.023438 -5.757812 53.378906 -4.46875 49.453125 -2.875 C 45.535156 -1.289062 40.210938 -0.460938 33.484375 -0.390625 C 32.015625 -0.367188 30.53125 -0.347656 29.03125 -0.328125 C 27.53125 -0.316406 26.050781 -0.300781 24.59375 -0.28125 Z M 24.59375 -0.28125 "/></g></g></g><g fill="#fcfdf2" fill-opacity="1"><g transform="translate(242.406048, 230.526125)"><g><path d="M 18.171875 -4.625 C 15.660156 -3.988281 12.914062 -3.835938 9.9375 -4.171875 C 6.957031 -4.503906 4.28125 -5.539062 1.90625 -7.28125 C -0.457031 -9.019531 -1.957031 -11.648438 -2.59375 -15.171875 C -3.289062 -19.179688 -3.660156 -23.253906 -3.703125 -27.390625 C -3.753906 -31.523438 -3.890625 -36.160156 -4.109375 -41.296875 C -4.328125 -46.429688 -5.046875 -52.359375 -6.265625 -59.078125 C -6.984375 -62.910156 -7.882812 -66.703125 -8.96875 -70.453125 C -10.050781 -74.203125 -10.953125 -77.65625 -11.671875 -80.8125 C -12.390625 -83.976562 -12.535156 -86.617188 -12.109375 -88.734375 C -11.691406 -90.859375 -10.34375 -92.210938 -8.0625 -92.796875 C -4.914062 -93.597656 -1.613281 -93.535156 1.84375 -92.609375 C 5.300781 -91.691406 8.679688 -90.316406 11.984375 -88.484375 C 15.296875 -86.648438 18.332031 -84.679688 21.09375 -82.578125 C 23.851562 -80.472656 26.160156 -78.648438 28.015625 -77.109375 C 29.878906 -75.578125 31.015625 -74.65625 31.421875 -74.34375 C 32.847656 -73.351562 33.835938 -72.929688 34.390625 -73.078125 C 34.929688 -73.210938 35.195312 -73.96875 35.1875 -75.34375 C 35.1875 -76.726562 34.832031 -79.046875 34.125 -82.296875 C 33.414062 -85.554688 32.347656 -89.976562 30.921875 -95.5625 C 29.765625 -100.125 31.269531 -102.9375 35.4375 -104 C 36.0625 -104.164062 36.957031 -104.25 38.125 -104.25 C 39.289062 -104.25 40.484375 -103.898438 41.703125 -103.203125 C 42.929688 -102.515625 43.859375 -101.125 44.484375 -99.03125 C 46.890625 -91.59375 49.128906 -85.101562 51.203125 -79.5625 C 53.285156 -74.019531 55.195312 -69.144531 56.9375 -64.9375 C 58.675781 -60.738281 60.285156 -56.878906 61.765625 -53.359375 C 63.253906 -49.847656 64.601562 -46.445312 65.8125 -43.15625 C 67.03125 -39.863281 68.082031 -36.316406 68.96875 -32.515625 C 69.875 -28.640625 69.476562 -25.019531 67.78125 -21.65625 C 66.082031 -18.300781 62.875 -16.019531 58.15625 -14.8125 C 52.175781 -13.289062 47.378906 -13.785156 43.765625 -16.296875 C 40.148438 -18.816406 37.863281 -22.628906 36.90625 -27.734375 C 36.09375 -32.554688 34.722656 -37.085938 32.796875 -41.328125 C 30.878906 -45.566406 28.726562 -49.414062 26.34375 -52.875 C 23.96875 -56.332031 21.609375 -59.269531 19.265625 -61.6875 C 16.929688 -64.101562 14.867188 -65.941406 13.078125 -67.203125 C 11.285156 -68.460938 10.085938 -68.984375 9.484375 -68.765625 C 8.328125 -68.378906 7.785156 -67.539062 7.859375 -66.25 C 7.929688 -64.96875 8.320312 -63.5 9.03125 -61.84375 C 9.75 -60.195312 10.53125 -58.617188 11.375 -57.109375 C 12.226562 -55.609375 12.882812 -54.453125 13.34375 -53.640625 C 14.84375 -50.679688 16.664062 -47.78125 18.8125 -44.9375 C 20.96875 -42.09375 23.070312 -39.253906 25.125 -36.421875 C 27.1875 -33.597656 28.941406 -30.738281 30.390625 -27.84375 C 31.847656 -24.957031 32.640625 -21.972656 32.765625 -18.890625 C 32.796875 -17.390625 32.492188 -15.742188 31.859375 -13.953125 C 31.234375 -12.160156 29.894531 -10.4375 27.84375 -8.78125 C 25.789062 -7.132812 22.566406 -5.75 18.171875 -4.625 Z M 18.171875 -4.625 "/></g></g></g></svg>