<svg xmlns="http://www.w3.org/2000/svg" xmlns:xlink="http://www.w3.org/1999/xlink" width="500" zoomAndPan="magnify" viewBox="0 0 375 374.999991" height="500" preserveAspectRatio="xMidYMid meet" version="1.0"><defs><g/><clipPath id="b37e93c59a"><path d="M 24 86 L 353 86 L 353 278 L 24 278 Z M 24 86 " clip-rule="nonzero"/></clipPath><clipPath id="eef035d53e"><path d="M 77.421875 0 L 374.335938 114.527344 L 297.058594 314.875 L 0.144531 200.347656 Z M 77.421875 0 " clip-rule="nonzero"/></clipPath><clipPath id="a2089713f5"><path d="M 77.421875 0 L 374.335938 114.527344 L 297.058594 314.875 L 0.144531 200.347656 Z M 77.421875 0 " clip-rule="nonzero"/></clipPath><clipPath id="19f562316c"><path d="M 350.203125 160.558594 C 357.605469 135.40625 344.960938 108.203125 321.078125 97.503906 C 302.640625 89.171875 282.234375 92.261719 267.367188 103.441406 C 259.957031 108.972656 249.707031 108.535156 242.507812 102.648438 C 236.964844 98.074219 230.46875 94.214844 223.402344 91.488281 C 202.671875 83.492188 180.457031 86.019531 162.582031 96.578125 C 152.222656 102.734375 139.371094 102.375 128.980469 96.339844 C 124.46875 93.652344 119.496094 91.460938 114.296875 89.863281 C 80.570312 79.425781 44.015625 96.3125 29.929688 128.628906 C 13.878906 165.328125 31.820312 207.566406 68.804688 221.832031 C 84.117188 227.738281 100.175781 227.84375 114.609375 223.398438 C 129.207031 218.878906 144.808594 225.441406 151.730469 239.070312 C 159.828125 254.910156 173.933594 267.796875 192.4375 273.851562 C 226.453125 284.941406 263.964844 268.019531 278.117188 235.183594 C 279.734375 231.34375 281.027344 227.648438 282.007812 223.695312 C 285.222656 210.457031 295.601562 200.386719 309.027344 197.855469 C 327.808594 194.410156 344.308594 180.75 350.203125 160.558594 Z M 350.203125 160.558594 " clip-rule="nonzero"/></clipPath><linearGradient x1="-25.788845" gradientTransform="matrix(1.177852, 0.454325, -0.454325, 1.177852, 79.150142, 0.66751)" y1="86.113998" x2="286.827353" gradientUnits="userSpaceOnUse" y2="86.113998" id="b3a97f015e"><stop stop-opacity="1" stop-color="rgb(85.899353%, 12.5%, 12.5%)" offset="0"/><stop stop-opacity="1" stop-color="rgb(85.899353%, 12.5%, 12.5%)" offset="0.0625"/><stop stop-opacity="1" stop-color="rgb(85.899353%, 12.5%, 12.5%)" offset="0.078125"/><stop stop-opacity="1" stop-color="rgb(85.775757%, 12.548828%, 12.667847%)" offset="0.0859375"/><stop stop-opacity="1" stop-color="rgb(85.371399%, 12.712097%, 13.217163%)" offset="0.0898438"/><stop stop-opacity="1" stop-color="rgb(85.090637%, 12.825012%, 13.598633%)" offset="0.09375"/><stop stop-opacity="1" stop-color="rgb(84.809875%, 12.937927%, 13.980103%)" offset="0.0976562"/><stop stop-opacity="1" stop-color="rgb(84.53064%, 13.050842%, 14.361572%)" offset="0.101562"/><stop stop-opacity="1" stop-color="rgb(84.249878%, 13.163757%, 14.743042%)" offset="0.105469"/><stop stop-opacity="1" stop-color="rgb(83.970642%, 13.278198%, 15.124512%)" offset="0.109375"/><stop stop-opacity="1" stop-color="rgb(83.68988%, 13.391113%, 15.505981%)" offset="0.113281"/><stop stop-opacity="1" stop-color="rgb(83.409119%, 13.504028%, 15.888977%)" offset="0.117188"/><stop stop-opacity="1" stop-color="rgb(83.128357%, 13.616943%, 16.270447%)" offset="0.121094"/><stop stop-opacity="1" stop-color="rgb(82.849121%, 13.729858%, 16.651917%)" offset="0.125"/><stop stop-opacity="1" stop-color="rgb(82.568359%, 13.842773%, 17.033386%)" offset="0.128906"/><stop stop-opacity="1" stop-color="rgb(82.287598%, 13.957214%, 17.414856%)" offset="0.132812"/><stop stop-opacity="1" stop-color="rgb(82.006836%, 14.070129%, 17.796326%)" offset="0.136719"/><stop stop-opacity="1" stop-color="rgb(81.7276%, 14.183044%, 18.177795%)" offset="0.140625"/><stop stop-opacity="1" stop-color="rgb(81.446838%, 14.295959%, 18.559265%)" offset="0.144531"/><stop stop-opacity="1" stop-color="rgb(81.166077%, 14.408875%, 18.940735%)" offset="0.148438"/><stop stop-opacity="1" stop-color="rgb(80.885315%, 14.52179%, 19.322205%)" offset="0.152344"/><stop stop-opacity="1" stop-color="rgb(80.606079%, 14.634705%, 19.703674%)" offset="0.15625"/><stop stop-opacity="1" stop-color="rgb(80.325317%, 14.74762%, 20.085144%)" offset="0.160156"/><stop stop-opacity="1" stop-color="rgb(80.044556%, 14.862061%, 20.466614%)" offset="0.164062"/><stop stop-opacity="1" stop-color="rgb(79.763794%, 14.974976%, 20.848083%)" offset="0.167969"/><stop stop-opacity="1" stop-color="rgb(79.484558%, 15.087891%, 21.231079%)" offset="0.171875"/><stop stop-opacity="1" stop-color="rgb(79.203796%, 15.200806%, 21.612549%)" offset="0.175781"/><stop stop-opacity="1" stop-color="rgb(78.923035%, 15.313721%, 21.994019%)" offset="0.179688"/><stop stop-opacity="1" stop-color="rgb(78.642273%, 15.426636%, 22.375488%)" offset="0.183594"/><stop stop-opacity="1" stop-color="rgb(78.363037%, 15.541077%, 22.756958%)" offset="0.1875"/><stop stop-opacity="1" stop-color="rgb(78.082275%, 15.653992%, 23.138428%)" offset="0.191406"/><stop stop-opacity="1" stop-color="rgb(77.801514%, 15.766907%, 23.519897%)" offset="0.195312"/><stop stop-opacity="1" stop-color="rgb(77.520752%, 15.879822%, 23.901367%)" offset="0.199219"/><stop stop-opacity="1" stop-color="rgb(77.241516%, 15.992737%, 24.282837%)" offset="0.203125"/><stop stop-opacity="1" stop-color="rgb(76.960754%, 16.105652%, 24.664307%)" offset="0.207031"/><stop stop-opacity="1" stop-color="rgb(76.679993%, 16.218567%, 25.045776%)" offset="0.210937"/><stop stop-opacity="1" stop-color="rgb(76.399231%, 16.331482%, 25.427246%)" offset="0.214844"/><stop stop-opacity="1" stop-color="rgb(76.119995%, 16.445923%, 25.808716%)" offset="0.21875"/><stop stop-opacity="1" stop-color="rgb(75.839233%, 16.558838%, 26.190186%)" offset="0.222656"/><stop stop-opacity="1" stop-color="rgb(75.559998%, 16.671753%, 26.573181%)" offset="0.226562"/><stop stop-opacity="1" stop-color="rgb(75.279236%, 16.784668%, 26.954651%)" offset="0.230469"/><stop stop-opacity="1" stop-color="rgb(74.998474%, 16.897583%, 27.336121%)" offset="0.234375"/><stop stop-opacity="1" stop-color="rgb(74.717712%, 17.010498%, 27.71759%)" offset="0.238281"/><stop stop-opacity="1" stop-color="rgb(74.438477%, 17.124939%, 28.09906%)" offset="0.242188"/><stop stop-opacity="1" stop-color="rgb(74.157715%, 17.237854%, 28.48053%)" offset="0.246094"/><stop stop-opacity="1" stop-color="rgb(73.876953%, 17.350769%, 28.862%)" offset="0.25"/><stop stop-opacity="1" stop-color="rgb(73.596191%, 17.463684%, 29.243469%)" offset="0.253906"/><stop stop-opacity="1" stop-color="rgb(73.316956%, 17.576599%, 29.624939%)" offset="0.257812"/><stop stop-opacity="1" stop-color="rgb(73.036194%, 17.689514%, 30.006409%)" offset="0.261719"/><stop stop-opacity="1" stop-color="rgb(72.755432%, 17.802429%, 30.387878%)" offset="0.265625"/><stop stop-opacity="1" stop-color="rgb(72.47467%, 17.915344%, 30.769348%)" offset="0.269531"/><stop stop-opacity="1" stop-color="rgb(72.195435%, 18.029785%, 31.152344%)" offset="0.273438"/><stop stop-opacity="1" stop-color="rgb(71.914673%, 18.1427%, 31.533813%)" offset="0.277344"/><stop stop-opacity="1" stop-color="rgb(71.633911%, 18.255615%, 31.915283%)" offset="0.28125"/><stop stop-opacity="1" stop-color="rgb(71.353149%, 18.36853%, 32.296753%)" offset="0.285156"/><stop stop-opacity="1" stop-color="rgb(71.073914%, 18.481445%, 32.678223%)" offset="0.289062"/><stop stop-opacity="1" stop-color="rgb(70.793152%, 18.59436%, 33.059692%)" offset="0.292969"/><stop stop-opacity="1" stop-color="rgb(70.51239%, 18.708801%, 33.441162%)" offset="0.296875"/><stop stop-opacity="1" stop-color="rgb(70.231628%, 18.821716%, 33.822632%)" offset="0.300781"/><stop stop-opacity="1" stop-color="rgb(69.952393%, 18.934631%, 34.204102%)" offset="0.304688"/><stop stop-opacity="1" stop-color="rgb(69.671631%, 19.047546%, 34.585571%)" offset="0.308594"/><stop stop-opacity="1" stop-color="rgb(69.390869%, 19.160461%, 34.967041%)" offset="0.3125"/><stop stop-opacity="1" stop-color="rgb(69.110107%, 19.273376%, 35.348511%)" offset="0.316406"/><stop stop-opacity="1" stop-color="rgb(68.830872%, 19.387817%, 35.72998%)" offset="0.320312"/><stop stop-opacity="1" stop-color="rgb(68.55011%, 19.500732%, 36.11145%)" offset="0.324219"/><stop stop-opacity="1" stop-color="rgb(68.269348%, 19.613647%, 36.494446%)" offset="0.328125"/><stop stop-opacity="1" stop-color="rgb(67.988586%, 19.726562%, 36.875916%)" offset="0.332031"/><stop stop-opacity="1" stop-color="rgb(67.709351%, 19.839478%, 37.257385%)" offset="0.335938"/><stop stop-opacity="1" stop-color="rgb(67.428589%, 19.952393%, 37.638855%)" offset="0.339844"/><stop stop-opacity="1" stop-color="rgb(67.147827%, 20.065308%, 38.020325%)" offset="0.34375"/><stop stop-opacity="1" stop-color="rgb(66.867065%, 20.178223%, 38.401794%)" offset="0.347656"/><stop stop-opacity="1" stop-color="rgb(66.58783%, 20.292664%, 38.783264%)" offset="0.351562"/><stop stop-opacity="1" stop-color="rgb(66.307068%, 20.405579%, 39.164734%)" offset="0.355469"/><stop stop-opacity="1" stop-color="rgb(66.027832%, 20.518494%, 39.546204%)" offset="0.359375"/><stop stop-opacity="1" stop-color="rgb(65.74707%, 20.631409%, 39.927673%)" offset="0.363281"/><stop stop-opacity="1" stop-color="rgb(65.466309%, 20.744324%, 40.309143%)" offset="0.367188"/><stop stop-opacity="1" stop-color="rgb(65.185547%, 20.857239%, 40.690613%)" offset="0.371094"/><stop stop-opacity="1" stop-color="rgb(64.906311%, 20.97168%, 41.072083%)" offset="0.375"/><stop stop-opacity="1" stop-color="rgb(64.625549%, 21.084595%, 41.453552%)" offset="0.378906"/><stop stop-opacity="1" stop-color="rgb(64.344788%, 21.19751%, 41.836548%)" offset="0.382812"/><stop stop-opacity="1" stop-color="rgb(64.064026%, 21.310425%, 42.218018%)" offset="0.386719"/><stop stop-opacity="1" stop-color="rgb(63.78479%, 21.42334%, 42.599487%)" offset="0.390625"/><stop stop-opacity="1" stop-color="rgb(63.504028%, 21.536255%, 42.980957%)" offset="0.394531"/><stop stop-opacity="1" stop-color="rgb(63.223267%, 21.64917%, 43.362427%)" offset="0.398438"/><stop stop-opacity="1" stop-color="rgb(62.942505%, 21.762085%, 43.743896%)" offset="0.402344"/><stop stop-opacity="1" stop-color="rgb(62.663269%, 21.876526%, 44.125366%)" offset="0.40625"/><stop stop-opacity="1" stop-color="rgb(62.382507%, 21.989441%, 44.506836%)" offset="0.410156"/><stop stop-opacity="1" stop-color="rgb(62.101746%, 22.102356%, 44.888306%)" offset="0.414062"/><stop stop-opacity="1" stop-color="rgb(61.820984%, 22.215271%, 45.269775%)" offset="0.417969"/><stop stop-opacity="1" stop-color="rgb(61.541748%, 22.328186%, 45.651245%)" offset="0.421875"/><stop stop-opacity="1" stop-color="rgb(61.260986%, 22.441101%, 46.032715%)" offset="0.425781"/><stop stop-opacity="1" stop-color="rgb(60.980225%, 22.555542%, 46.414185%)" offset="0.429688"/><stop stop-opacity="1" stop-color="rgb(60.699463%, 22.668457%, 46.795654%)" offset="0.433594"/><stop stop-opacity="1" stop-color="rgb(60.420227%, 22.781372%, 47.17865%)" offset="0.4375"/><stop stop-opacity="1" stop-color="rgb(60.139465%, 22.894287%, 47.56012%)" offset="0.441406"/><stop stop-opacity="1" stop-color="rgb(59.858704%, 23.007202%, 47.941589%)" offset="0.445312"/><stop stop-opacity="1" stop-color="rgb(59.577942%, 23.120117%, 48.323059%)" offset="0.449219"/><stop stop-opacity="1" stop-color="rgb(59.298706%, 23.233032%, 48.704529%)" offset="0.453125"/><stop stop-opacity="1" stop-color="rgb(59.017944%, 23.345947%, 49.085999%)" offset="0.457031"/><stop stop-opacity="1" stop-color="rgb(58.737183%, 23.460388%, 49.467468%)" offset="0.460938"/><stop stop-opacity="1" stop-color="rgb(58.456421%, 23.573303%, 49.848938%)" offset="0.464844"/><stop stop-opacity="1" stop-color="rgb(58.177185%, 23.686218%, 50.230408%)" offset="0.46875"/><stop stop-opacity="1" stop-color="rgb(57.896423%, 23.799133%, 50.611877%)" offset="0.472656"/><stop stop-opacity="1" stop-color="rgb(57.617188%, 23.912048%, 50.993347%)" offset="0.476563"/><stop stop-opacity="1" stop-color="rgb(57.336426%, 24.024963%, 51.374817%)" offset="0.480469"/><stop stop-opacity="1" stop-color="rgb(57.055664%, 24.139404%, 51.756287%)" offset="0.484375"/><stop stop-opacity="1" stop-color="rgb(56.774902%, 24.252319%, 52.137756%)" offset="0.488281"/><stop stop-opacity="1" stop-color="rgb(56.495667%, 24.365234%, 52.520752%)" offset="0.492187"/><stop stop-opacity="1" stop-color="rgb(56.214905%, 24.478149%, 52.902222%)" offset="0.496094"/><stop stop-opacity="1" stop-color="rgb(55.934143%, 24.591064%, 53.283691%)" offset="0.5"/><stop stop-opacity="1" stop-color="rgb(55.653381%, 24.703979%, 53.665161%)" offset="0.503906"/><stop stop-opacity="1" stop-color="rgb(55.374146%, 24.816895%, 54.046631%)" offset="0.507812"/><stop stop-opacity="1" stop-color="rgb(55.093384%, 24.92981%, 54.428101%)" offset="0.511719"/><stop stop-opacity="1" stop-color="rgb(54.812622%, 25.04425%, 54.80957%)" offset="0.515625"/><stop stop-opacity="1" stop-color="rgb(54.53186%, 25.157166%, 55.19104%)" offset="0.519531"/><stop stop-opacity="1" stop-color="rgb(54.252625%, 25.270081%, 55.57251%)" offset="0.523438"/><stop stop-opacity="1" stop-color="rgb(53.971863%, 25.382996%, 55.953979%)" offset="0.527344"/><stop stop-opacity="1" stop-color="rgb(53.691101%, 25.495911%, 56.335449%)" offset="0.53125"/><stop stop-opacity="1" stop-color="rgb(53.410339%, 25.608826%, 56.716919%)" offset="0.535156"/><stop stop-opacity="1" stop-color="rgb(53.131104%, 25.723267%, 57.099915%)" offset="0.539062"/><stop stop-opacity="1" stop-color="rgb(52.850342%, 25.836182%, 57.481384%)" offset="0.542969"/><stop stop-opacity="1" stop-color="rgb(52.56958%, 25.949097%, 57.862854%)" offset="0.546875"/><stop stop-opacity="1" stop-color="rgb(52.288818%, 26.062012%, 58.244324%)" offset="0.550781"/><stop stop-opacity="1" stop-color="rgb(52.009583%, 26.174927%, 58.625793%)" offset="0.554688"/><stop stop-opacity="1" stop-color="rgb(51.728821%, 26.287842%, 59.007263%)" offset="0.558594"/><stop stop-opacity="1" stop-color="rgb(51.448059%, 26.400757%, 59.388733%)" offset="0.5625"/><stop stop-opacity="1" stop-color="rgb(51.167297%, 26.513672%, 59.770203%)" offset="0.566406"/><stop stop-opacity="1" stop-color="rgb(50.888062%, 26.628113%, 60.151672%)" offset="0.570312"/><stop stop-opacity="1" stop-color="rgb(50.6073%, 26.741028%, 60.533142%)" offset="0.574219"/><stop stop-opacity="1" stop-color="rgb(50.326538%, 26.853943%, 60.914612%)" offset="0.578125"/><stop stop-opacity="1" stop-color="rgb(50.045776%, 26.966858%, 61.296082%)" offset="0.582031"/><stop stop-opacity="1" stop-color="rgb(49.766541%, 27.079773%, 61.677551%)" offset="0.585938"/><stop stop-opacity="1" stop-color="rgb(49.485779%, 27.192688%, 62.059021%)" offset="0.589844"/><stop stop-opacity="1" stop-color="rgb(49.205017%, 27.307129%, 62.442017%)" offset="0.59375"/><stop stop-opacity="1" stop-color="rgb(48.924255%, 27.420044%, 62.823486%)" offset="0.597656"/><stop stop-opacity="1" stop-color="rgb(48.64502%, 27.532959%, 63.204956%)" offset="0.601562"/><stop stop-opacity="1" stop-color="rgb(48.364258%, 27.645874%, 63.586426%)" offset="0.605469"/><stop stop-opacity="1" stop-color="rgb(48.085022%, 27.758789%, 63.967896%)" offset="0.609375"/><stop stop-opacity="1" stop-color="rgb(47.80426%, 27.871704%, 64.349365%)" offset="0.613281"/><stop stop-opacity="1" stop-color="rgb(47.523499%, 27.984619%, 64.730835%)" offset="0.617188"/><stop stop-opacity="1" stop-color="rgb(47.242737%, 28.097534%, 65.112305%)" offset="0.621094"/><stop stop-opacity="1" stop-color="rgb(46.963501%, 28.211975%, 65.493774%)" offset="0.625"/><stop stop-opacity="1" stop-color="rgb(46.682739%, 28.32489%, 65.875244%)" offset="0.628906"/><stop stop-opacity="1" stop-color="rgb(46.401978%, 28.437805%, 66.256714%)" offset="0.632812"/><stop stop-opacity="1" stop-color="rgb(46.121216%, 28.55072%, 66.638184%)" offset="0.636719"/><stop stop-opacity="1" stop-color="rgb(45.84198%, 28.663635%, 67.019653%)" offset="0.640625"/><stop stop-opacity="1" stop-color="rgb(45.561218%, 28.77655%, 67.401123%)" offset="0.644531"/><stop stop-opacity="1" stop-color="rgb(45.280457%, 28.890991%, 67.784119%)" offset="0.648438"/><stop stop-opacity="1" stop-color="rgb(44.999695%, 29.003906%, 68.165588%)" offset="0.652344"/><stop stop-opacity="1" stop-color="rgb(44.720459%, 29.116821%, 68.547058%)" offset="0.65625"/><stop stop-opacity="1" stop-color="rgb(44.439697%, 29.229736%, 68.928528%)" offset="0.660156"/><stop stop-opacity="1" stop-color="rgb(44.158936%, 29.342651%, 69.309998%)" offset="0.664062"/><stop stop-opacity="1" stop-color="rgb(43.878174%, 29.455566%, 69.691467%)" offset="0.667969"/><stop stop-opacity="1" stop-color="rgb(43.598938%, 29.568481%, 70.072937%)" offset="0.671875"/><stop stop-opacity="1" stop-color="rgb(43.318176%, 29.681396%, 70.454407%)" offset="0.675781"/><stop stop-opacity="1" stop-color="rgb(43.037415%, 29.795837%, 70.835876%)" offset="0.679688"/><stop stop-opacity="1" stop-color="rgb(42.756653%, 29.908752%, 71.217346%)" offset="0.683594"/><stop stop-opacity="1" stop-color="rgb(42.477417%, 30.021667%, 71.598816%)" offset="0.6875"/><stop stop-opacity="1" stop-color="rgb(42.196655%, 30.134583%, 71.980286%)" offset="0.691406"/><stop stop-opacity="1" stop-color="rgb(41.915894%, 30.247498%, 72.361755%)" offset="0.695312"/><stop stop-opacity="1" stop-color="rgb(41.635132%, 30.360413%, 72.743225%)" offset="0.699219"/><stop stop-opacity="1" stop-color="rgb(41.355896%, 30.474854%, 73.126221%)" offset="0.703125"/><stop stop-opacity="1" stop-color="rgb(41.075134%, 30.587769%, 73.50769%)" offset="0.707031"/><stop stop-opacity="1" stop-color="rgb(40.794373%, 30.700684%, 73.88916%)" offset="0.710938"/><stop stop-opacity="1" stop-color="rgb(40.513611%, 30.813599%, 74.27063%)" offset="0.714844"/><stop stop-opacity="1" stop-color="rgb(40.234375%, 30.926514%, 74.6521%)" offset="0.71875"/><stop stop-opacity="1" stop-color="rgb(39.953613%, 31.039429%, 75.033569%)" offset="0.722656"/><stop stop-opacity="1" stop-color="rgb(39.674377%, 31.152344%, 75.415039%)" offset="0.726562"/><stop stop-opacity="1" stop-color="rgb(39.393616%, 31.265259%, 75.796509%)" offset="0.730469"/><stop stop-opacity="1" stop-color="rgb(39.112854%, 31.3797%, 76.177979%)" offset="0.734375"/><stop stop-opacity="1" stop-color="rgb(38.832092%, 31.492615%, 76.559448%)" offset="0.738281"/><stop stop-opacity="1" stop-color="rgb(38.552856%, 31.60553%, 76.940918%)" offset="0.742188"/><stop stop-opacity="1" stop-color="rgb(38.272095%, 31.718445%, 77.322388%)" offset="0.746094"/><stop stop-opacity="1" stop-color="rgb(37.991333%, 31.83136%, 77.703857%)" offset="0.75"/><stop stop-opacity="1" stop-color="rgb(37.710571%, 31.944275%, 78.085327%)" offset="0.753906"/><stop stop-opacity="1" stop-color="rgb(37.431335%, 32.058716%, 78.468323%)" offset="0.757812"/><stop stop-opacity="1" stop-color="rgb(37.150574%, 32.171631%, 78.849792%)" offset="0.761719"/><stop stop-opacity="1" stop-color="rgb(36.869812%, 32.284546%, 79.231262%)" offset="0.765625"/><stop stop-opacity="1" stop-color="rgb(36.58905%, 32.397461%, 79.612732%)" offset="0.769531"/><stop stop-opacity="1" stop-color="rgb(36.309814%, 32.510376%, 79.994202%)" offset="0.773438"/><stop stop-opacity="1" stop-color="rgb(36.029053%, 32.623291%, 80.375671%)" offset="0.777344"/><stop stop-opacity="1" stop-color="rgb(35.748291%, 32.737732%, 80.757141%)" offset="0.78125"/><stop stop-opacity="1" stop-color="rgb(35.467529%, 32.850647%, 81.138611%)" offset="0.785156"/><stop stop-opacity="1" stop-color="rgb(35.188293%, 32.963562%, 81.520081%)" offset="0.789062"/><stop stop-opacity="1" stop-color="rgb(34.907532%, 33.076477%, 81.90155%)" offset="0.792969"/><stop stop-opacity="1" stop-color="rgb(34.62677%, 33.189392%, 82.28302%)" offset="0.796875"/><stop stop-opacity="1" stop-color="rgb(34.346008%, 33.302307%, 82.66449%)" offset="0.800781"/><stop stop-opacity="1" stop-color="rgb(34.066772%, 33.415222%, 83.047485%)" offset="0.804688"/><stop stop-opacity="1" stop-color="rgb(33.786011%, 33.528137%, 83.428955%)" offset="0.808594"/><stop stop-opacity="1" stop-color="rgb(33.505249%, 33.642578%, 83.810425%)" offset="0.8125"/><stop stop-opacity="1" stop-color="rgb(33.224487%, 33.755493%, 84.191895%)" offset="0.816406"/><stop stop-opacity="1" stop-color="rgb(32.945251%, 33.868408%, 84.573364%)" offset="0.820312"/><stop stop-opacity="1" stop-color="rgb(32.66449%, 33.981323%, 84.954834%)" offset="0.824219"/><stop stop-opacity="1" stop-color="rgb(32.383728%, 34.094238%, 85.336304%)" offset="0.828125"/><stop stop-opacity="1" stop-color="rgb(32.102966%, 34.207153%, 85.717773%)" offset="0.832031"/><stop stop-opacity="1" stop-color="rgb(31.82373%, 34.321594%, 86.099243%)" offset="0.835938"/><stop stop-opacity="1" stop-color="rgb(31.542969%, 34.434509%, 86.480713%)" offset="0.839844"/><stop stop-opacity="1" stop-color="rgb(31.263733%, 34.547424%, 86.862183%)" offset="0.84375"/><stop stop-opacity="1" stop-color="rgb(30.982971%, 34.660339%, 87.243652%)" offset="0.847656"/><stop stop-opacity="1" stop-color="rgb(30.702209%, 34.773254%, 87.625122%)" offset="0.851562"/><stop stop-opacity="1" stop-color="rgb(30.421448%, 34.886169%, 88.006592%)" offset="0.855469"/><stop stop-opacity="1" stop-color="rgb(30.142212%, 34.999084%, 88.389587%)" offset="0.859375"/><stop stop-opacity="1" stop-color="rgb(29.86145%, 35.112%, 88.771057%)" offset="0.863281"/><stop stop-opacity="1" stop-color="rgb(29.580688%, 35.22644%, 89.152527%)" offset="0.867187"/><stop stop-opacity="1" stop-color="rgb(29.489136%, 35.263062%, 89.276123%)" offset="0.875"/><stop stop-opacity="1" stop-color="rgb(29.399109%, 35.299683%, 89.399719%)" offset="1"/></linearGradient><clipPath id="2e6ce47c57"><path d="M 123 61 L 154 61 L 154 92 L 123 92 Z M 123 61 " clip-rule="nonzero"/></clipPath><clipPath id="534f726c5e"><path d="M 77.421875 0 L 374.335938 114.527344 L 297.058594 314.875 L 0.144531 200.347656 Z M 77.421875 0 " clip-rule="nonzero"/></clipPath><clipPath id="dee7ffe200"><path d="M 77.421875 0 L 374.335938 114.527344 L 297.058594 314.875 L 0.144531 200.347656 Z M 77.421875 0 " clip-rule="nonzero"/></clipPath><clipPath id="e2364aaa4f"><path d="M 152.226562 82.03125 C 151.871094 82.953125 151.429688 83.828125 150.902344 84.660156 C 150.375 85.496094 149.769531 86.269531 149.089844 86.984375 C 148.410156 87.699219 147.664062 88.339844 146.859375 88.90625 C 146.054688 89.476562 145.199219 89.957031 144.296875 90.359375 C 143.394531 90.757812 142.464844 91.066406 141.5 91.28125 C 140.539062 91.5 139.5625 91.617188 138.578125 91.644531 C 137.589844 91.667969 136.613281 91.59375 135.640625 91.425781 C 134.667969 91.257812 133.722656 90.996094 132.800781 90.640625 C 131.882812 90.285156 131.003906 89.84375 130.171875 89.316406 C 129.339844 88.789062 128.566406 88.183594 127.851562 87.503906 C 127.136719 86.824219 126.496094 86.082031 125.925781 85.273438 C 125.359375 84.46875 124.875 83.613281 124.476562 82.710938 C 124.074219 81.8125 123.765625 80.878906 123.550781 79.917969 C 123.335938 78.953125 123.214844 77.980469 123.191406 76.992188 C 123.167969 76.007812 123.238281 75.027344 123.40625 74.054688 C 123.574219 73.085938 123.835938 72.136719 124.191406 71.21875 C 124.546875 70.296875 124.988281 69.421875 125.515625 68.585938 C 126.042969 67.753906 126.648438 66.980469 127.328125 66.265625 C 128.007812 65.550781 128.75 64.910156 129.558594 64.34375 C 130.363281 63.773438 131.21875 63.289062 132.121094 62.890625 C 133.023438 62.492188 133.953125 62.183594 134.917969 61.964844 C 135.878906 61.75 136.855469 61.628906 137.839844 61.605469 C 138.824219 61.582031 139.804688 61.652344 140.777344 61.824219 C 141.75 61.992188 142.695312 62.253906 143.617188 62.609375 C 144.535156 62.964844 145.414062 63.40625 146.246094 63.933594 C 147.078125 64.460938 147.851562 65.0625 148.566406 65.742188 C 149.28125 66.425781 149.921875 67.167969 150.492188 67.972656 C 151.058594 68.78125 151.542969 69.632812 151.941406 70.535156 C 152.34375 71.4375 152.652344 72.371094 152.867188 73.332031 C 153.082031 74.296875 153.203125 75.269531 153.226562 76.253906 C 153.25 77.242188 153.179688 78.21875 153.011719 79.191406 C 152.84375 80.164062 152.582031 81.109375 152.226562 82.03125 Z M 152.226562 82.03125 " clip-rule="nonzero"/></clipPath><linearGradient x1="49.894575" gradientTransform="matrix(1.177852, 0.454325, -0.454325, 1.177852, 79.150142, 0.66751)" y1="86.113998" x2="80.705401" gradientUnits="userSpaceOnUse" y2="86.113998" id="94bc9502eb"><stop stop-opacity="1" stop-color="rgb(74.44458%, 17.121887%, 28.089905%)" offset="0"/><stop stop-opacity="1" stop-color="rgb(74.333191%, 17.166138%, 28.239441%)" offset="0.03125"/><stop stop-opacity="1" stop-color="rgb(74.111938%, 17.254639%, 28.540039%)" offset="0.0625"/><stop stop-opacity="1" stop-color="rgb(73.890686%, 17.344666%, 28.842163%)" offset="0.09375"/><stop stop-opacity="1" stop-color="rgb(73.669434%, 17.433167%, 29.142761%)" offset="0.125"/><stop stop-opacity="1" stop-color="rgb(73.448181%, 17.523193%, 29.443359%)" offset="0.15625"/><stop stop-opacity="1" stop-color="rgb(73.228455%, 17.611694%, 29.743958%)" offset="0.1875"/><stop stop-opacity="1" stop-color="rgb(73.007202%, 17.701721%, 30.044556%)" offset="0.21875"/><stop stop-opacity="1" stop-color="rgb(72.78595%, 17.790222%, 30.34668%)" offset="0.25"/><stop stop-opacity="1" stop-color="rgb(72.564697%, 17.880249%, 30.647278%)" offset="0.28125"/><stop stop-opacity="1" stop-color="rgb(72.343445%, 17.96875%, 30.947876%)" offset="0.3125"/><stop stop-opacity="1" stop-color="rgb(72.122192%, 18.058777%, 31.248474%)" offset="0.34375"/><stop stop-opacity="1" stop-color="rgb(71.90094%, 18.147278%, 31.549072%)" offset="0.375"/><stop stop-opacity="1" stop-color="rgb(71.681213%, 18.235779%, 31.84967%)" offset="0.40625"/><stop stop-opacity="1" stop-color="rgb(71.459961%, 18.325806%, 32.151794%)" offset="0.4375"/><stop stop-opacity="1" stop-color="rgb(71.238708%, 18.414307%, 32.452393%)" offset="0.46875"/><stop stop-opacity="1" stop-color="rgb(71.017456%, 18.504333%, 32.752991%)" offset="0.5"/><stop stop-opacity="1" stop-color="rgb(70.796204%, 18.592834%, 33.053589%)" offset="0.53125"/><stop stop-opacity="1" stop-color="rgb(70.574951%, 18.682861%, 33.354187%)" offset="0.5625"/><stop stop-opacity="1" stop-color="rgb(70.353699%, 18.771362%, 33.654785%)" offset="0.59375"/><stop stop-opacity="1" stop-color="rgb(70.132446%, 18.861389%, 33.956909%)" offset="0.625"/><stop stop-opacity="1" stop-color="rgb(69.91272%, 18.94989%, 34.257507%)" offset="0.65625"/><stop stop-opacity="1" stop-color="rgb(69.691467%, 19.039917%, 34.558105%)" offset="0.6875"/><stop stop-opacity="1" stop-color="rgb(69.470215%, 19.128418%, 34.858704%)" offset="0.71875"/><stop stop-opacity="1" stop-color="rgb(69.248962%, 19.216919%, 35.159302%)" offset="0.75"/><stop stop-opacity="1" stop-color="rgb(69.02771%, 19.306946%, 35.4599%)" offset="0.78125"/><stop stop-opacity="1" stop-color="rgb(68.806458%, 19.395447%, 35.762024%)" offset="0.8125"/><stop stop-opacity="1" stop-color="rgb(68.585205%, 19.485474%, 36.062622%)" offset="0.84375"/><stop stop-opacity="1" stop-color="rgb(68.365479%, 19.573975%, 36.36322%)" offset="0.875"/><stop stop-opacity="1" stop-color="rgb(68.144226%, 19.664001%, 36.663818%)" offset="0.90625"/><stop stop-opacity="1" stop-color="rgb(67.922974%, 19.752502%, 36.964417%)" offset="0.9375"/><stop stop-opacity="1" stop-color="rgb(67.701721%, 19.842529%, 37.266541%)" offset="0.96875"/><stop stop-opacity="1" stop-color="rgb(67.480469%, 19.93103%, 37.567139%)" offset="1"/></linearGradient><clipPath id="a4d58627a4"><path d="M 220 59 L 239 59 L 239 78 L 220 78 Z M 220 59 " clip-rule="nonzero"/></clipPath><clipPath id="aad02703d9"><path d="M 77.421875 0 L 374.335938 114.527344 L 297.058594 314.875 L 0.144531 200.347656 Z M 77.421875 0 " clip-rule="nonzero"/></clipPath><clipPath id="c79468e3f6"><path d="M 77.421875 0 L 374.335938 114.527344 L 297.058594 314.875 L 0.144531 200.347656 Z M 77.421875 0 " clip-rule="nonzero"/></clipPath><clipPath id="bab27ea414"><path d="M 237.644531 71.410156 C 237.433594 71.957031 237.167969 72.480469 236.855469 72.980469 C 236.539062 73.476562 236.179688 73.9375 235.773438 74.363281 C 235.367188 74.789062 234.921875 75.171875 234.441406 75.511719 C 233.960938 75.851562 233.453125 76.140625 232.914062 76.378906 C 232.375 76.617188 231.820312 76.800781 231.246094 76.929688 C 230.671875 77.058594 230.089844 77.128906 229.5 77.144531 C 228.914062 77.160156 228.328125 77.117188 227.75 77.015625 C 227.167969 76.914062 226.605469 76.757812 226.054688 76.546875 C 225.507812 76.335938 224.984375 76.070312 224.484375 75.757812 C 223.988281 75.441406 223.527344 75.082031 223.101562 74.675781 C 222.675781 74.269531 222.292969 73.824219 221.953125 73.34375 C 221.613281 72.863281 221.324219 72.355469 221.085938 71.816406 C 220.847656 71.277344 220.664062 70.722656 220.535156 70.148438 C 220.40625 69.574219 220.335938 68.992188 220.320312 68.402344 C 220.304688 67.816406 220.347656 67.230469 220.449219 66.652344 C 220.550781 66.070312 220.707031 65.507812 220.917969 64.957031 C 221.128906 64.410156 221.394531 63.886719 221.707031 63.386719 C 222.023438 62.890625 222.382812 62.429688 222.789062 62.003906 C 223.195312 61.578125 223.636719 61.195312 224.121094 60.855469 C 224.601562 60.515625 225.109375 60.226562 225.648438 59.988281 C 226.1875 59.75 226.742188 59.566406 227.316406 59.4375 C 227.890625 59.308594 228.472656 59.238281 229.0625 59.222656 C 229.648438 59.207031 230.234375 59.25 230.8125 59.351562 C 231.394531 59.453125 231.957031 59.609375 232.507812 59.820312 C 233.054688 60.03125 233.578125 60.296875 234.074219 60.609375 C 234.574219 60.925781 235.035156 61.285156 235.460938 61.691406 C 235.886719 62.097656 236.269531 62.539062 236.609375 63.023438 C 236.949219 63.503906 237.238281 64.011719 237.476562 64.550781 C 237.714844 65.089844 237.898438 65.644531 238.027344 66.21875 C 238.15625 66.792969 238.226562 67.375 238.242188 67.964844 C 238.253906 68.550781 238.210938 69.136719 238.113281 69.714844 C 238.011719 70.296875 237.855469 70.859375 237.644531 71.410156 Z M 237.644531 71.410156 " clip-rule="nonzero"/></clipPath><linearGradient x1="121.00851" gradientTransform="matrix(1.177852, 0.454325, -0.454325, 1.177852, 79.150142, 0.66751)" y1="86.113998" x2="139.391454" gradientUnits="userSpaceOnUse" y2="86.113998" id="47cd38e8ba"><stop stop-opacity="1" stop-color="rgb(58.117676%, 23.710632%, 50.311279%)" offset="0"/><stop stop-opacity="1" stop-color="rgb(57.984924%, 23.762512%, 50.489807%)" offset="0.0625"/><stop stop-opacity="1" stop-color="rgb(57.720947%, 23.869324%, 50.849915%)" offset="0.125"/><stop stop-opacity="1" stop-color="rgb(57.45697%, 23.976135%, 51.208496%)" offset="0.1875"/><stop stop-opacity="1" stop-color="rgb(57.194519%, 24.082947%, 51.567078%)" offset="0.25"/><stop stop-opacity="1" stop-color="rgb(56.930542%, 24.188232%, 51.927185%)" offset="0.3125"/><stop stop-opacity="1" stop-color="rgb(56.666565%, 24.295044%, 52.285767%)" offset="0.375"/><stop stop-opacity="1" stop-color="rgb(56.402588%, 24.401855%, 52.644348%)" offset="0.4375"/><stop stop-opacity="1" stop-color="rgb(56.138611%, 24.508667%, 53.00293%)" offset="0.5"/><stop stop-opacity="1" stop-color="rgb(55.874634%, 24.615479%, 53.363037%)" offset="0.5625"/><stop stop-opacity="1" stop-color="rgb(55.610657%, 24.720764%, 53.721619%)" offset="0.625"/><stop stop-opacity="1" stop-color="rgb(55.348206%, 24.827576%, 54.0802%)" offset="0.6875"/><stop stop-opacity="1" stop-color="rgb(55.084229%, 24.934387%, 54.440308%)" offset="0.75"/><stop stop-opacity="1" stop-color="rgb(54.820251%, 25.041199%, 54.798889%)" offset="0.8125"/><stop stop-opacity="1" stop-color="rgb(54.556274%, 25.146484%, 55.157471%)" offset="0.875"/><stop stop-opacity="1" stop-color="rgb(54.292297%, 25.253296%, 55.516052%)" offset="0.9375"/><stop stop-opacity="1" stop-color="rgb(54.02832%, 25.360107%, 55.87616%)" offset="1"/></linearGradient><clipPath id="46f6fcce50"><path d="M 300 217 L 329 217 L 329 246 L 300 246 Z M 300 217 " clip-rule="nonzero"/></clipPath><clipPath id="023b05e64f"><path d="M 77.421875 0 L 374.335938 114.527344 L 297.058594 314.875 L 0.144531 200.347656 Z M 77.421875 0 " clip-rule="nonzero"/></clipPath><clipPath id="bb1465a770"><path d="M 77.421875 0 L 374.335938 114.527344 L 297.058594 314.875 L 0.144531 200.347656 Z M 77.421875 0 " clip-rule="nonzero"/></clipPath><clipPath id="059fdda5b0"><path d="M 327.859375 236.375 C 327.523438 237.242188 327.109375 238.066406 326.613281 238.851562 C 326.117188 239.636719 325.546875 240.363281 324.90625 241.035156 C 324.269531 241.707031 323.566406 242.3125 322.808594 242.847656 C 322.050781 243.382812 321.246094 243.835938 320.398438 244.210938 C 319.546875 244.589844 318.671875 244.878906 317.765625 245.082031 C 316.859375 245.285156 315.941406 245.398438 315.015625 245.421875 C 314.085938 245.445312 313.164062 245.375 312.25 245.21875 C 311.335938 245.058594 310.445312 244.8125 309.578125 244.480469 C 308.710938 244.144531 307.886719 243.730469 307.101562 243.230469 C 306.320312 242.734375 305.589844 242.167969 304.917969 241.527344 C 304.246094 240.886719 303.640625 240.1875 303.105469 239.429688 C 302.574219 238.667969 302.117188 237.867188 301.742188 237.015625 C 301.363281 236.167969 301.074219 235.289062 300.871094 234.386719 C 300.667969 233.480469 300.554688 232.5625 300.53125 231.632812 C 300.507812 230.707031 300.578125 229.785156 300.734375 228.871094 C 300.894531 227.953125 301.140625 227.0625 301.476562 226.199219 C 301.808594 225.332031 302.226562 224.507812 302.722656 223.722656 C 303.21875 222.9375 303.785156 222.210938 304.425781 221.539062 C 305.066406 220.863281 305.765625 220.261719 306.527344 219.726562 C 307.285156 219.191406 308.089844 218.738281 308.9375 218.359375 C 309.785156 217.984375 310.664062 217.695312 311.570312 217.492188 C 312.476562 217.289062 313.390625 217.175781 314.320312 217.152344 C 315.25 217.128906 316.167969 217.195312 317.085938 217.355469 C 318 217.515625 318.890625 217.761719 319.753906 218.09375 C 320.621094 218.429688 321.445312 218.84375 322.230469 219.339844 C 323.015625 219.835938 323.746094 220.40625 324.417969 221.046875 C 325.089844 221.6875 325.691406 222.386719 326.226562 223.144531 C 326.761719 223.902344 327.21875 224.707031 327.59375 225.554688 C 327.96875 226.40625 328.257812 227.28125 328.464844 228.1875 C 328.667969 229.09375 328.78125 230.011719 328.800781 230.9375 C 328.824219 231.867188 328.757812 232.789062 328.597656 233.703125 C 328.441406 234.617188 328.191406 235.507812 327.859375 236.375 Z M 327.859375 236.375 " clip-rule="nonzero"/></clipPath><linearGradient x1="225.300751" gradientTransform="matrix(1.177852, 0.454325, -0.454325, 1.177852, 79.150142, 0.66751)" y1="86.113998" x2="254.29916" gradientUnits="userSpaceOnUse" y2="86.113998" id="23bc230afe"><stop stop-opacity="1" stop-color="rgb(34.173584%, 33.372498%, 82.901001%)" offset="0"/><stop stop-opacity="1" stop-color="rgb(34.069824%, 33.413696%, 83.041382%)" offset="0.03125"/><stop stop-opacity="1" stop-color="rgb(33.862305%, 33.49762%, 83.325195%)" offset="0.0625"/><stop stop-opacity="1" stop-color="rgb(33.653259%, 33.581543%, 83.607483%)" offset="0.09375"/><stop stop-opacity="1" stop-color="rgb(33.44574%, 33.665466%, 83.891296%)" offset="0.125"/><stop stop-opacity="1" stop-color="rgb(33.23822%, 33.74939%, 84.173584%)" offset="0.15625"/><stop stop-opacity="1" stop-color="rgb(33.029175%, 33.833313%, 84.457397%)" offset="0.1875"/><stop stop-opacity="1" stop-color="rgb(32.821655%, 33.917236%, 84.741211%)" offset="0.21875"/><stop stop-opacity="1" stop-color="rgb(32.614136%, 34.00116%, 85.023499%)" offset="0.25"/><stop stop-opacity="1" stop-color="rgb(32.40509%, 34.085083%, 85.307312%)" offset="0.28125"/><stop stop-opacity="1" stop-color="rgb(32.197571%, 34.169006%, 85.5896%)" offset="0.3125"/><stop stop-opacity="1" stop-color="rgb(31.990051%, 34.25293%, 85.873413%)" offset="0.34375"/><stop stop-opacity="1" stop-color="rgb(31.781006%, 34.336853%, 86.155701%)" offset="0.375"/><stop stop-opacity="1" stop-color="rgb(31.573486%, 34.420776%, 86.439514%)" offset="0.40625"/><stop stop-opacity="1" stop-color="rgb(31.365967%, 34.5047%, 86.723328%)" offset="0.4375"/><stop stop-opacity="1" stop-color="rgb(31.156921%, 34.588623%, 87.005615%)" offset="0.46875"/><stop stop-opacity="1" stop-color="rgb(30.949402%, 34.672546%, 87.289429%)" offset="0.5"/><stop stop-opacity="1" stop-color="rgb(30.740356%, 34.75647%, 87.571716%)" offset="0.53125"/><stop stop-opacity="1" stop-color="rgb(30.532837%, 34.840393%, 87.85553%)" offset="0.5625"/><stop stop-opacity="1" stop-color="rgb(30.325317%, 34.924316%, 88.137817%)" offset="0.59375"/><stop stop-opacity="1" stop-color="rgb(30.116272%, 35.00824%, 88.421631%)" offset="0.625"/><stop stop-opacity="1" stop-color="rgb(29.908752%, 35.092163%, 88.705444%)" offset="0.65625"/><stop stop-opacity="1" stop-color="rgb(29.701233%, 35.176086%, 88.987732%)" offset="0.6875"/><stop stop-opacity="1" stop-color="rgb(29.498291%, 35.258484%, 89.263916%)" offset="0.75"/><stop stop-opacity="1" stop-color="rgb(29.399109%, 35.299683%, 89.399719%)" offset="1"/></linearGradient></defs><g clip-path="url(#b37e93c59a)"><g clip-path="url(#eef035d53e)"><g clip-path="url(#a2089713f5)"><g clip-path="url(#19f562316c)"><path fill="url(#b3a97f015e)" d="M 58.394531 -35.988281 L -55.128906 258.324219 L 313.085938 400.351562 L 426.609375 106.042969 Z M 58.394531 -35.988281 " fill-rule="nonzero"/></g></g></g></g><g clip-path="url(#2e6ce47c57)"><g clip-path="url(#534f726c5e)"><g clip-path="url(#dee7ffe200)"><g clip-path="url(#e2364aaa4f)"><path fill="url(#94bc9502eb)" d="M 127.0625 51.480469 L 113.066406 87.769531 L 149.355469 101.769531 L 163.351562 65.476562 Z M 127.0625 51.480469 " fill-rule="nonzero"/></g></g></g></g><g clip-path="url(#a4d58627a4)"><g clip-path="url(#aad02703d9)"><g clip-path="url(#c79468e3f6)"><g clip-path="url(#bab27ea414)"><path fill="url(#47cd38e8ba)" d="M 222.628906 53.179688 L 214.277344 74.832031 L 235.929688 83.183594 L 244.28125 61.53125 Z M 222.628906 53.179688 " fill-rule="nonzero"/></g></g></g></g><g clip-path="url(#46f6fcce50)"><g clip-path="url(#023b05e64f)"><g clip-path="url(#bb1465a770)"><g clip-path="url(#059fdda5b0)"><path fill="url(#23bc230afe)" d="M 304.175781 207.621094 L 291.003906 241.777344 L 325.15625 254.953125 L 338.332031 220.796875 Z M 304.175781 207.621094 " fill-rule="nonzero"/></g></g></g></g><g fill="#fcfdf2" fill-opacity="1"><g transform="translate(25.108548, 221.660834)"><g/></g></g><g fill="#fcfdf2" fill-opacity="1"><g transform="translate(76.748406, 203.263653)"><g><path d="M 13.390625 -0.5 C 9.546875 -0.351562 6.671875 -1.023438 4.765625 -2.515625 C 2.867188 -4.003906 1.664062 -6.007812 1.15625 -8.53125 C 0.65625 -11.050781 0.59375 -13.898438 0.96875 -17.078125 C 1.34375 -20.265625 1.898438 -23.507812 2.640625 -26.8125 C 3.378906 -30.125 4.0625 -33.222656 4.6875 -36.109375 C 5.320312 -39.003906 5.601562 -41.476562 5.53125 -43.53125 C 5.457031 -45.5 5.132812 -48.050781 4.5625 -51.1875 C 4 -54.320312 3.398438 -57.765625 2.765625 -61.515625 C 2.140625 -65.273438 1.59375 -69.007812 1.125 -72.71875 C 0.65625 -76.4375 0.460938 -79.835938 0.546875 -82.921875 C 0.640625 -86.003906 1.207031 -88.507812 2.25 -90.4375 C 3.289062 -92.363281 4.914062 -93.367188 7.125 -93.453125 C 9.082031 -93.523438 10.785156 -93.335938 12.234375 -92.890625 C 13.691406 -92.453125 14.5 -92.28125 14.65625 -92.375 C 17.582031 -93.382812 20.316406 -93.941406 22.859375 -94.046875 C 26.953125 -94.191406 30.789062 -93.445312 34.375 -91.8125 C 37.96875 -90.175781 40.945312 -87.90625 43.3125 -85 C 45.6875 -82.09375 47.164062 -78.804688 47.75 -75.140625 C 48.332031 -71.472656 47.710938 -67.632812 45.890625 -63.625 C 44.523438 -60.695312 43.128906 -58.507812 41.703125 -57.0625 C 40.273438 -55.625 39.179688 -54.625 38.421875 -54.0625 C 37.660156 -53.5 37.613281 -53.023438 38.28125 -52.640625 C 38.625 -52.484375 39.671875 -52.023438 41.421875 -51.265625 C 43.179688 -50.515625 45.21875 -49.421875 47.53125 -47.984375 C 49.84375 -46.554688 52.101562 -44.734375 54.3125 -42.515625 C 56.519531 -40.296875 58.335938 -37.613281 59.765625 -34.46875 C 61.203125 -31.332031 61.832031 -27.660156 61.65625 -23.453125 C 61.539062 -19.929688 60.640625 -16.519531 58.953125 -13.21875 C 57.265625 -9.914062 54.78125 -7.175781 51.5 -5 C 48.226562 -2.820312 44.09375 -1.640625 39.09375 -1.453125 C 37.363281 -1.390625 35.570312 -1.46875 33.71875 -1.6875 C 31.875 -1.90625 29.875 -2.257812 27.71875 -2.75 C 26.113281 -1.863281 24.101562 -1.296875 21.6875 -1.046875 C 19.269531 -0.796875 16.503906 -0.613281 13.390625 -0.5 Z M 26.125 -45.65625 C 24.675781 -45.03125 23.703125 -43.679688 23.203125 -41.609375 C 22.703125 -39.535156 22.617188 -37.273438 22.953125 -34.828125 C 23.296875 -32.378906 24.007812 -30.269531 25.09375 -28.5 C 26.1875 -26.738281 27.515625 -25.882812 29.078125 -25.9375 C 29.648438 -25.957031 30.175781 -26.101562 30.65625 -26.375 C 32.269531 -27.09375 33.289062 -28.21875 33.71875 -29.75 C 34.15625 -31.28125 34.21875 -32.960938 33.90625 -34.796875 C 33.59375 -36.640625 33.015625 -38.40625 32.171875 -40.09375 C 31.335938 -41.78125 30.425781 -43.160156 29.4375 -44.234375 C 28.457031 -45.304688 27.5625 -45.832031 26.75 -45.8125 C 26.414062 -45.789062 26.207031 -45.738281 26.125 -45.65625 Z M 21.078125 -82.140625 C 20.429688 -81.796875 20 -80.71875 19.78125 -78.90625 C 19.5625 -77.09375 19.613281 -75.0625 19.9375 -72.8125 C 20.269531 -70.570312 20.898438 -68.625 21.828125 -66.96875 C 22.753906 -65.320312 23.992188 -64.523438 25.546875 -64.578125 C 26.117188 -64.597656 26.648438 -64.660156 27.140625 -64.765625 C 27.628906 -64.867188 28.113281 -65.175781 28.59375 -65.6875 C 30.394531 -67.632812 31.300781 -69.59375 31.3125 -71.5625 C 31.320312 -73.539062 30.785156 -75.367188 29.703125 -77.046875 C 28.617188 -78.734375 27.359375 -80.0625 25.921875 -81.03125 C 24.484375 -82.007812 23.191406 -82.476562 22.046875 -82.4375 C 21.722656 -82.414062 21.398438 -82.316406 21.078125 -82.140625 Z M 21.078125 -82.140625 "/></g></g></g><g fill="#fcfdf2" fill-opacity="1"><g transform="translate(134.770524, 201.895624)"><g><path d="M 10.859375 2.15625 C 8.847656 1.757812 7.148438 0.816406 5.765625 -0.671875 C 4.390625 -2.160156 3.585938 -4.328125 3.359375 -7.171875 C 3.128906 -10.023438 3.695312 -13.632812 5.0625 -18 C 6.4375 -22.363281 8.898438 -27.625 12.453125 -33.78125 C 14.753906 -37.757812 16.640625 -42.085938 18.109375 -46.765625 C 19.578125 -51.441406 20.796875 -56.109375 21.765625 -60.765625 C 22.734375 -65.429688 23.585938 -69.753906 24.328125 -73.734375 C 25.078125 -77.722656 25.925781 -81.003906 26.875 -83.578125 C 27.269531 -84.835938 28.222656 -86.007812 29.734375 -87.09375 C 31.253906 -88.175781 33.421875 -88.4375 36.234375 -87.875 C 38.171875 -87.5 39.644531 -86.707031 40.65625 -85.5 C 41.664062 -84.300781 42.320312 -83 42.625 -81.59375 C 42.875 -80.625 42.816406 -78.921875 42.453125 -76.484375 C 42.085938 -74.054688 41.617188 -71.179688 41.046875 -67.859375 C 40.472656 -64.546875 39.914062 -61.019531 39.375 -57.28125 C 38.84375 -53.539062 38.476562 -49.804688 38.28125 -46.078125 C 38.09375 -42.347656 38.226562 -38.894531 38.6875 -35.71875 C 39.3125 -31.664062 39.769531 -27.5625 40.0625 -23.40625 C 40.363281 -19.25 40.398438 -15.3125 40.171875 -11.59375 C 39.941406 -7.875 39.300781 -4.65625 38.25 -1.9375 C 37.207031 0.769531 35.578125 2.757812 33.359375 4.03125 C 31.148438 5.3125 28.234375 5.59375 24.609375 4.875 Z M 10.859375 2.15625 "/></g></g></g><g fill="#fcfdf2" fill-opacity="1"><g transform="translate(170.223311, 209.51253)"><g><path d="M 24.59375 -0.28125 C 20.207031 -0.226562 16.097656 -1.007812 12.265625 -2.625 C 8.429688 -4.25 5.457031 -6.648438 3.34375 -9.828125 C 1.238281 -13.015625 0.523438 -16.96875 1.203125 -21.6875 C 1.816406 -25.507812 3.210938 -29.378906 5.390625 -33.296875 C 7.578125 -37.222656 10.171875 -41.023438 13.171875 -44.703125 C 16.179688 -48.390625 19.226562 -51.8125 22.3125 -54.96875 C 25.40625 -58.132812 28.15625 -60.945312 30.5625 -63.40625 C 32.96875 -65.875 34.609375 -67.804688 35.484375 -69.203125 C 36.835938 -71.316406 37.242188 -73 36.703125 -74.25 C 36.160156 -75.507812 35.078125 -76.128906 33.453125 -76.109375 C 32.640625 -76.097656 31.710938 -75.882812 30.671875 -75.46875 C 29.128906 -74.894531 27.207031 -74.101562 24.90625 -73.09375 C 22.601562 -72.09375 20.273438 -71.582031 17.921875 -71.5625 C 16.378906 -71.539062 14.914062 -71.925781 13.53125 -72.71875 C 12.144531 -73.507812 11.03125 -74.957031 10.1875 -77.0625 C 9.6875 -78.4375 9.628906 -80 10.015625 -81.75 C 10.398438 -83.5 11.429688 -85.171875 13.109375 -86.765625 C 14.796875 -88.367188 17.257812 -89.71875 20.5 -90.8125 C 23.738281 -91.914062 27.875 -92.492188 32.90625 -92.546875 C 34.601562 -92.566406 36.8125 -92.507812 39.53125 -92.375 C 42.25 -92.25 44.953125 -91.894531 47.640625 -91.3125 C 50.335938 -90.738281 52.625 -89.769531 54.5 -88.40625 C 56.382812 -87.050781 57.335938 -85.15625 57.359375 -82.71875 C 57.390625 -80.363281 56.789062 -77.695312 55.5625 -74.71875 C 54.34375 -71.738281 52.773438 -68.65625 50.859375 -65.46875 C 48.953125 -62.289062 46.957031 -59.144531 44.875 -56.03125 C 42.800781 -52.925781 40.945312 -50.023438 39.3125 -47.328125 C 37.6875 -44.628906 36.5 -42.28125 35.75 -40.28125 C 35.007812 -38.289062 35.050781 -36.851562 35.875 -35.96875 C 36.4375 -35.320312 37.082031 -35.003906 37.8125 -35.015625 C 38.625 -35.023438 39.695312 -35.21875 41.03125 -35.59375 C 42.375 -35.976562 44.425781 -36.1875 47.1875 -36.21875 C 47.757812 -36.226562 48.328125 -36.234375 48.890625 -36.234375 C 49.460938 -36.242188 50.070312 -36.210938 50.71875 -36.140625 C 54.613281 -35.941406 57.671875 -34.695312 59.890625 -32.40625 C 62.109375 -30.125 63.519531 -27.378906 64.125 -24.171875 C 64.726562 -20.972656 64.457031 -17.785156 63.3125 -14.609375 C 62.175781 -11.429688 60.203125 -8.8125 57.390625 -6.75 C 56.023438 -5.757812 53.378906 -4.46875 49.453125 -2.875 C 45.535156 -1.289062 40.210938 -0.460938 33.484375 -0.390625 C 32.015625 -0.367188 30.53125 -0.347656 29.03125 -0.328125 C 27.53125 -0.316406 26.050781 -0.300781 24.59375 -0.28125 Z M 24.59375 -0.28125 "/></g></g></g><g fill="#fcfdf2" fill-opacity="1"><g transform="translate(242.406048, 208.535219)"><g><path d="M 18.171875 -4.625 C 15.660156 -3.988281 12.914062 -3.835938 9.9375 -4.171875 C 6.957031 -4.503906 4.28125 -5.539062 1.90625 -7.28125 C -0.457031 -9.019531 -1.957031 -11.648438 -2.59375 -15.171875 C -3.289062 -19.179688 -3.660156 -23.253906 -3.703125 -27.390625 C -3.753906 -31.523438 -3.890625 -36.160156 -4.109375 -41.296875 C -4.328125 -46.429688 -5.046875 -52.359375 -6.265625 -59.078125 C -6.984375 -62.910156 -7.882812 -66.703125 -8.96875 -70.453125 C -10.050781 -74.203125 -10.953125 -77.65625 -11.671875 -80.8125 C -12.390625 -83.976562 -12.535156 -86.617188 -12.109375 -88.734375 C -11.691406 -90.859375 -10.34375 -92.210938 -8.0625 -92.796875 C -4.914062 -93.597656 -1.613281 -93.535156 1.84375 -92.609375 C 5.300781 -91.691406 8.679688 -90.316406 11.984375 -88.484375 C 15.296875 -86.648438 18.332031 -84.679688 21.09375 -82.578125 C 23.851562 -80.472656 26.160156 -78.648438 28.015625 -77.109375 C 29.878906 -75.578125 31.015625 -74.65625 31.421875 -74.34375 C 32.847656 -73.351562 33.835938 -72.929688 34.390625 -73.078125 C 34.929688 -73.210938 35.195312 -73.96875 35.1875 -75.34375 C 35.1875 -76.726562 34.832031 -79.046875 34.125 -82.296875 C 33.414062 -85.554688 32.347656 -89.976562 30.921875 -95.5625 C 29.765625 -100.125 31.269531 -102.9375 35.4375 -104 C 36.0625 -104.164062 36.957031 -104.25 38.125 -104.25 C 39.289062 -104.25 40.484375 -103.898438 41.703125 -103.203125 C 42.929688 -102.515625 43.859375 -101.125 44.484375 -99.03125 C 46.890625 -91.59375 49.128906 -85.101562 51.203125 -79.5625 C 53.285156 -74.019531 55.195312 -69.144531 56.9375 -64.9375 C 58.675781 -60.738281 60.285156 -56.878906 61.765625 -53.359375 C 63.253906 -49.847656 64.601562 -46.445312 65.8125 -43.15625 C 67.03125 -39.863281 68.082031 -36.316406 68.96875 -32.515625 C 69.875 -28.640625 69.476562 -25.019531 67.78125 -21.65625 C 66.082031 -18.300781 62.875 -16.019531 58.15625 -14.8125 C 52.175781 -13.289062 47.378906 -13.785156 43.765625 -16.296875 C 40.148438 -18.816406 37.863281 -22.628906 36.90625 -27.734375 C 36.09375 -32.554688 34.722656 -37.085938 32.796875 -41.328125 C 30.878906 -45.566406 28.726562 -49.414062 26.34375 -52.875 C 23.96875 -56.332031 21.609375 -59.269531 19.265625 -61.6875 C 16.929688 -64.101562 14.867188 -65.941406 13.078125 -67.203125 C 11.285156 -68.460938 10.085938 -68.984375 9.484375 -68.765625 C 8.328125 -68.378906 7.785156 -67.539062 7.859375 -66.25 C 7.929688 -64.96875 8.320312 -63.5 9.03125 -61.84375 C 9.75 -60.195312 10.53125 -58.617188 11.375 -57.109375 C 12.226562 -55.609375 12.882812 -54.453125 13.34375 -53.640625 C 14.84375 -50.679688 16.664062 -47.78125 18.8125 -44.9375 C 20.96875 -42.09375 23.070312 -39.253906 25.125 -36.421875 C 27.1875 -33.597656 28.941406 -30.738281 30.390625 -27.84375 C 31.847656 -24.957031 32.640625 -21.972656 32.765625 -18.890625 C 32.796875 -17.390625 32.492188 -15.742188 31.859375 -13.953125 C 31.234375 -12.160156 29.894531 -10.4375 27.84375 -8.78125 C 25.789062 -7.132812 22.566406 -5.75 18.171875 -4.625 Z M 18.171875 -4.625 "/></g></g></g></svg>